<?xml version="1.0" encoding="UTF-8" standalone="no"?><!DOCTYPE svg PUBLIC "-//W3C//DTD SVG 1.1//EN" "http://www.w3.org/Graphics/SVG/1.1/DTD/svg11.dtd"><svg width="100%" height="100%" viewBox="0 0 800 800" version="1.1" xmlns="http://www.w3.org/2000/svg" xmlns:xlink="http://www.w3.org/1999/xlink" xml:space="preserve" xmlns:serif="http://www.serif.com/" style="fill-rule:evenodd;clip-rule:evenodd;stroke-miterlimit:10;"><g id="Layer-2" serif:id="Layer 2"><g><path d="M364.308,195.479c-69.455,-0 -129.409,13.368 -178.193,39.732l-17.987,9.72l-6.61,19.347l-4.679,13.695l-58.139,29.916l-25.605,13.174l-2.531,28.684c-0.294,3.335 -1.61,21.398 1.381,49.645c3.972,37.525 13.509,75.182 28.347,111.925c20.588,50.983 50.805,98.343 89.812,140.764c47.811,51.996 108.916,96.529 181.62,132.363l21.42,10.556l21.998,-9.291c2.864,-1.209 70.948,-30.403 141.807,-98.447c41.563,-39.914 76.01,-85.288 102.381,-134.863c32.958,-61.959 53.212,-130.425 60.201,-203.498l3.525,-36.865l-33.62,-15.53l-36.009,-16.634l-4.076,-24.862l-27.832,-10.794c-5.132,-1.99 -127.162,-48.737 -257.211,-48.737m0,52.238c121.77,-0 238.322,45.202 238.322,45.202l3.728,22.753l61.172,28.256c-27.753,290.201 -272.713,393.659 -272.713,393.659c-293.278,-144.546 -272.217,-383.25 -272.217,-383.25l76.864,-39.549l11.486,-33.621c45.922,-24.816 100.137,-33.45 153.358,-33.45" style="fill-rule:nonzero;"/><path d="M364.308,209.061c-67.176,-0 -124.957,12.818 -171.736,38.099l-13.31,7.193l-4.892,14.316l-6.448,18.876l-63.008,32.42l-18.948,9.75l-1.872,21.226c-0.169,1.909 -1.562,19.451 1.357,47.022c3.839,36.269 13.069,72.695 27.434,108.269c19.975,49.463 49.318,95.441 87.217,136.657c46.67,50.756 106.432,94.283 177.626,129.372l15.851,7.812l16.279,-6.875c2.768,-1.17 68.615,-29.408 137.684,-95.733c40.525,-38.916 74.101,-83.141 99.797,-131.445c32.115,-60.372 51.854,-127.128 58.672,-198.411l2.608,-27.281l-24.879,-11.492l-42.551,-19.656l-0.412,-2.513l-3.573,-21.801l-20.596,-7.988c-5.035,-1.951 -124.763,-47.817 -252.3,-47.817m0,38.656c121.77,-0 238.322,45.202 238.322,45.202l3.728,22.753l61.172,28.256c-27.752,290.201 -272.713,393.659 -272.713,393.659c-293.278,-144.546 -272.217,-383.25 -272.217,-383.25l76.863,-39.549l11.487,-33.621c45.922,-24.816 100.137,-33.45 153.358,-33.45" style="fill:#fcad0b;fill-rule:nonzero;"/><path d="M364.308,235.18c-62.793,-0 -116.395,11.762 -159.318,34.958l-4.317,2.332l-1.586,4.644l-9.853,28.839l-72.37,37.237l-6.145,3.161l-0.607,6.885c-0.226,2.559 -5.16,63.593 26.993,143.216c18.794,46.541 46.458,89.862 82.223,128.758c44.48,48.373 101.657,89.965 169.947,123.623l5.141,2.534l5.279,-2.23c2.588,-1.094 64.129,-27.49 129.756,-90.511c38.528,-36.999 70.433,-79.012 94.828,-124.872c30.492,-57.322 49.243,-120.787 55.732,-188.631l0.845,-8.848l-8.069,-3.727l-55.132,-25.468l-2.653,-16.189l-1.159,-7.07l-6.68,-2.591c-1.218,-0.473 -30.355,-11.704 -74.935,-23.061c-41.168,-10.488 -103.718,-22.989 -167.92,-22.989m0,12.537c121.77,-0 238.322,45.202 238.322,45.202l3.728,22.753l61.172,28.256c-27.753,290.201 -272.713,393.659 -272.713,393.659c-293.278,-144.546 -272.217,-383.25 -272.217,-383.25l76.863,-39.549l11.487,-33.62c45.922,-24.817 100.137,-33.451 153.358,-33.451" style="fill:#030503;fill-rule:nonzero;"/><path d="M122.6,354.338c0,-0 -21.06,238.703 272.218,383.25c-0,-0 244.96,-103.459 272.713,-393.659l-61.172,-28.258l-3.729,-22.751c0,-0 -240.693,-93.349 -391.679,-11.753l-11.487,33.621l-76.864,39.55Z" style="fill:#ec321b;fill-rule:nonzero;"/><path d="M443.953,461.561c-0.346,3.902 -0.725,7.803 -1.123,11.702c0.701,-0.37 1.395,-0.75 2.069,-1.185c0.521,-0.337 1.021,-0.701 1.523,-1.062c0.052,-0.048 0.088,-0.08 0.151,-0.138c1.202,-1.115 2.453,-2.172 3.633,-3.312c0.654,-0.631 1.285,-1.284 1.923,-1.929c0.131,-1.347 0.264,-2.694 0.396,-4.04c-0.054,-0 -0.105,0.005 -0.158,0.005c-2.804,-0.003 -5.609,-0.019 -8.414,-0.041" style="fill:#030503;fill-rule:nonzero;"/><path d="M475.985,443.012c1.661,-1.111 3.37,-2.129 5.123,-3.03c-0.987,0.24 -1.941,0.587 -2.828,1.115c-0.873,0.519 -1.625,1.175 -2.295,1.915" style="fill:#030503;fill-rule:nonzero;"/><path d="M448.266,527.487c0.358,-0.035 0.575,-0.051 0.668,-0.053c0.278,-0.054 0.555,-0.111 0.831,-0.174c-0.091,-0.45 -0.19,-0.898 -0.287,-1.339c-0.552,-2.497 -1.284,-4.95 -2.063,-7.384c-0.796,-2.489 -1.679,-4.948 -2.53,-7.418c-0.264,-0.765 -0.533,-1.531 -0.788,-2.299c-0.163,-0.491 -0.266,-0.833 -0.328,-1.067c-0.111,-0.178 -0.242,-0.4 -0.425,-0.721c-0.621,-1.099 -1.193,-2.2 -1.903,-3.246c-0.091,-0.084 -0.194,-0.177 -0.308,-0.28c-0.051,-0.046 -0.762,-0.634 -1.312,-1.11c-0.276,2.882 -0.542,5.763 -0.781,8.646c-0.572,5.48 -1.09,10.963 -1.616,16.445c3.579,0.206 7.184,0.24 10.842,-0" style="fill:#030503;fill-rule:nonzero;"/><path d="M550.311,550.288c0.217,0.061 0.435,0.114 0.653,0.176c1.411,0.401 2.68,1.012 3.825,1.757c-1.627,-1.688 -3.127,-3.497 -4.51,-5.39c0.001,0.097 -0.002,0.195 -0.001,0.292c0.007,1.055 0.019,2.11 0.033,3.165" style="fill:#030503;fill-rule:nonzero;"/><path d="M409.922,474.006c0.452,-4.265 0.777,-8.546 1.098,-12.827c-5.849,-0.054 -11.697,-0.078 -17.545,-0.041c0.676,20.219 0.569,40.464 0.524,60.706c4.131,0.453 8.253,0.967 12.368,1.539c0.897,-11.444 1.694,-22.894 2.646,-34.322c-0.146,-5.056 1.233,-10.009 0.909,-15.055" style="fill:#030503;fill-rule:nonzero;"/><path d="M342.086,516.977c-3.26,-4.868 -5.987,-10.239 -10.103,-14.449c1.672,4.482 0.679,9.298 1.369,13.937c0.098,0.72 0.171,1.442 0.232,2.165c3.225,0.02 6.45,0.063 9.674,0.124c-0.389,-0.593 -0.767,-1.194 -1.172,-1.777" style="fill:#030503;fill-rule:nonzero;"/><path d="M344.511,546.837c-3.155,-0.066 -6.311,-0.112 -9.467,-0.137c0.06,0.534 0.133,1.067 0.23,1.599c0.042,0.717 0.229,1.602 0.269,2.438c2.923,-0.024 5.848,-0.045 8.771,-0.08c-0.024,-1.296 0.01,-2.577 0.197,-3.82" style="fill:#030503;fill-rule:nonzero;"/><path d="M342.357,721.875c-0.511,-0.303 -1.013,-0.679 -1.556,-0.961c0.616,0.386 1.222,0.773 1.807,1.138c-0.083,-0.062 -0.167,-0.125 -0.251,-0.177" style="fill:#030503;fill-rule:nonzero;"/><path d="M488.894,677.008c-0.089,0.089 -0.186,0.159 -0.274,0.239c-1.467,1.246 -2.907,2.501 -4.329,3.791c-0.115,0.115 -0.24,0.22 -0.363,0.326c-0.123,0.107 -0.247,0.212 -0.371,0.319c-0.124,0.105 -0.247,0.212 -0.372,0.301c-0.123,0.105 -0.246,0.194 -0.371,0.282c-0.194,0.15 -0.397,0.291 -0.6,0.433c-0.036,0.035 -0.08,0.052 -0.115,0.08c-0.185,0.123 -0.379,0.256 -0.574,0.371c-0.257,0.158 -0.513,0.317 -0.778,0.459c-0.177,0.106 -0.362,0.203 -0.548,0.292c-0.203,0.105 -0.406,0.212 -0.61,0.3c3.562,-2.677 6.68,-5.107 9.305,-7.193" style="fill:#ec321b;fill-rule:nonzero;"/><path d="M489.071,676.867c-0.062,0.053 -0.115,0.106 -0.177,0.141c0.026,-0.026 0.053,-0.044 0.07,-0.062c0.036,-0.026 0.071,-0.053 0.107,-0.079" style="fill:#ec321b;fill-rule:nonzero;"/><path d="M536.14,379.573c-0.972,0.53 -2.121,0.619 -3.217,0.751c-6.379,0.769 -12.396,3.782 -17.044,8.182c-2.333,2.2 -4.321,4.763 -5.858,7.572c-0.381,0.716 -1.344,3.853 -2.174,3.774c-1.016,-0.097 0.027,-4.445 0.15,-5.16c1.467,-8.669 2.934,-17.327 4.401,-25.987c0.061,0.027 0.123,0.053 0.186,0.088c7.854,3.588 15.7,7.184 23.556,10.78" style="fill:#ec321b;fill-rule:nonzero;"/><path d="M329.326,276.237c-9.446,1.538 -19.06,2.341 -28.603,3.013c-7.828,-5.523 -15.206,-11.999 -21.1,-19.607c10.206,-1.82 20.42,-3.534 30.625,-5.328c4.799,6.724 9.897,13.315 16.118,18.794c1.069,0.954 2.04,2.014 2.96,3.128" style="fill:#ec321b;fill-rule:nonzero;"/><path d="M481.506,26.998c-3.03,10.584 -20.3,11.994 -25.179,2.236c-0.857,-1.483 -1.233,-3.176 -1.181,-4.858c0.073,-3.364 1.818,-6.728 4.764,-8.441c2.393,-1.432 5.162,-2.247 7.941,-2.403c3.917,-0.178 8.044,0.919 10.855,3.782c1.87,1.556 3.134,3.876 3.322,6.268c0.084,1.149 -0.073,2.309 -0.522,3.416" style="fill:#54a4bb;fill-rule:nonzero;"/><path d="M459.545,327.687c-0.154,-0 -0.316,-0.022 -0.466,-0.05c-0.58,-0.116 -1.109,-0.3 -1.62,-0.478c-0.438,-0.151 -0.852,-0.296 -1.26,-0.385c-0.462,-0.102 -0.982,-0.149 -1.639,-0.149c-0.366,0 -0.733,0.014 -1.099,0.027c-0.391,0.014 -0.783,0.028 -1.174,0.028c-0.224,-0 -0.448,-0.005 -0.671,-0.016l-0.209,-0.011c-0.815,-0.041 -2.047,-0.103 -2.72,-0.804c-0.665,-0.691 -0.692,-1.832 -0.71,-2.667c-0.003,-0.129 -0.006,-0.246 -0.012,-0.346c-0.368,-5.971 -1.979,-11.954 -4.661,-17.299l-3.091,-6.161l4.777,4.969c1.055,1.097 2.793,1.466 4.474,1.823l0.204,0.044c3.485,0.742 7.139,1.801 11.851,3.436c0.254,0.088 0.786,0.273 1.131,0.769c0.45,0.641 0.293,1.348 0.2,1.77c-1.109,4.507 -1.7,9.118 -1.76,13.731c-0,0.275 -0,1.041 -0.669,1.507c-0.247,0.173 -0.543,0.262 -0.876,0.262" style="fill:#686d69;fill-rule:nonzero;"/><path d="M436.189,293.684l6.18,12.322c2.619,5.219 4.193,11.064 4.553,16.898c0.006,0.08 0.007,0.185 0.01,0.3c0.022,0.95 0.054,2.385 1.005,3.372c0.958,0.996 2.437,1.072 3.417,1.121l0.186,0.009c0.264,0.014 0.505,0.019 0.746,0.019c0.404,-0 0.808,-0.015 1.212,-0.029c0.354,-0.013 0.709,-0.025 1.063,-0.025c0.588,-0 1.024,0.037 1.411,0.123c0.352,0.076 0.737,0.21 1.144,0.352c0.519,0.181 1.108,0.384 1.75,0.513c0.173,0.033 0.408,0.072 0.678,0.072c0.548,0 1.061,-0.159 1.485,-0.458c0.729,-0.507 1.105,-1.308 1.105,-2.369c0.06,-4.505 0.64,-9.038 1.724,-13.444c0.116,-0.518 0.361,-1.624 -0.352,-2.643c-0.537,-0.772 -1.315,-1.042 -1.648,-1.157c-4.749,-1.648 -8.442,-2.719 -11.973,-3.47l-0.203,-0.044c-1.527,-0.324 -3.106,-0.66 -3.939,-1.526l-9.554,-9.936Zm8.048,11.384c1.325,1.378 3.349,1.768 5.213,2.165c3.985,0.848 7.881,2.068 11.725,3.402c0.23,0.079 0.477,0.176 0.619,0.38c0.185,0.266 0.106,0.627 0.035,0.946c-1.122,4.559 -1.723,9.251 -1.784,13.943c-0,0.247 -0.018,0.521 -0.222,0.662c-0.079,0.057 -0.176,0.076 -0.279,0.076c-0.089,-0 -0.182,-0.015 -0.268,-0.032c-0.972,-0.194 -1.882,-0.644 -2.855,-0.856c-0.614,-0.136 -1.237,-0.173 -1.86,-0.173c-0.758,0 -1.518,0.054 -2.275,0.054c-0.206,0 -0.412,-0.004 -0.618,-0.014c-0.574,-0.036 -1.794,-0.044 -2.227,-0.495c-0.468,-0.486 -0.398,-1.732 -0.432,-2.35c-0.38,-6.151 -2.015,-12.211 -4.772,-17.708" style="fill-rule:nonzero;"/><path d="M313.339,304.136c-1.913,-0 -3.2,-0.764 -3.939,-2.334c-0.461,-0.998 -0.584,-2.031 -0.702,-3.031c-0.027,-0.225 -0.054,-0.449 -0.085,-0.672c-0.314,-2.196 -1.114,-4.343 -2.316,-6.204c-1.06,-1.654 -1.382,-2.938 -0.983,-3.93c0.19,-0.474 0.638,-1.093 1.686,-1.346c0.271,-0.062 0.551,-0.091 0.866,-0.091c0.248,-0 0.499,0.018 0.748,0.038l0.132,0.01c0.413,0.033 0.821,0.05 1.229,0.05c1.228,-0 2.451,-0.15 3.634,-0.446c0.903,-0.227 1.756,-0.44 2.598,-0.44c1.282,-0 2.34,0.515 3.234,1.574c1.165,1.374 2.126,2.549 3.03,3.814c2.397,3.374 3.627,6.662 3.763,10.055c0.021,0.581 -0.17,1.098 -0.555,1.496c-0.778,0.807 -2.12,0.918 -3.456,0.918l-0.978,-0.008c-0.157,0 -0.298,0.003 -0.414,0.011l-6.74,0.504c-0.255,0.02 -0.508,0.032 -0.752,0.032" style="fill:#686d69;fill-rule:nonzero;"/><path d="M316.206,284.694c-0.971,0 -1.927,0.241 -2.852,0.473c-1.099,0.274 -2.237,0.414 -3.379,0.414c-0.379,0 -0.761,-0.015 -1.138,-0.047l-0.149,-0.01c-0.273,-0.022 -0.549,-0.041 -0.822,-0.041c-0.396,0 -0.752,0.038 -1.091,0.116c-1.578,0.381 -2.199,1.401 -2.431,1.977c-0.533,1.326 -0.183,2.922 1.07,4.879c1.125,1.742 1.872,3.743 2.166,5.796c0.028,0.207 0.054,0.425 0.08,0.644c0.123,1.029 0.262,2.197 0.789,3.339c0.921,1.959 2.564,2.947 4.891,2.947c0.27,0 0.549,-0.012 0.835,-0.035l6.727,-0.503c0.106,-0.009 0.216,-0.009 0.34,-0.009l0.004,-0l0.415,0.003c0.18,0.002 0.368,0.005 0.561,0.005c1.566,0 3.161,-0.15 4.208,-1.237c0.578,-0.599 0.879,-1.4 0.849,-2.256c-0.145,-3.609 -1.439,-7.081 -3.955,-10.624c-0.926,-1.297 -1.904,-2.491 -3.087,-3.887c-1.087,-1.288 -2.445,-1.944 -4.031,-1.944m0,2.09c0.88,-0 1.669,0.296 2.437,1.205c1.034,1.219 2.05,2.447 2.977,3.746c2.016,2.837 3.429,5.965 3.57,9.49c0.044,1.205 -1.585,1.328 -2.968,1.328c-0.351,-0 -0.687,-0.009 -0.976,-0.009c-0.19,0 -0.36,0.003 -0.5,0.015c-2.244,0.168 -4.488,0.336 -6.734,0.503c-0.229,0.019 -0.454,0.03 -0.672,0.03c-1.29,-0 -2.352,-0.367 -2.994,-1.735c-0.486,-1.051 -0.539,-2.253 -0.697,-3.401c-0.337,-2.351 -1.185,-4.631 -2.475,-6.627c-0.645,-1.007 -1.874,-3.225 0.071,-3.694c0.202,-0.047 0.411,-0.062 0.621,-0.062c0.266,-0 0.535,0.025 0.802,0.045c0.434,0.035 0.871,0.053 1.307,0.053c1.309,-0 2.616,-0.16 3.888,-0.477c0.864,-0.218 1.633,-0.41 2.343,-0.41" style="fill-rule:nonzero;"/><path d="M257.78,285.273c-0.855,0 -1.651,-0.15 -2.367,-0.445c-1.131,-0.458 -1.931,-1.528 -2.637,-2.473c-0.2,-0.268 -0.393,-0.528 -0.583,-0.753l-0.787,-0.951c-0.706,-0.855 -1.416,-1.711 -2.115,-2.571c-3.795,-4.653 -7.569,-9.488 -11.211,-14.367l-0.213,-0.283c-0.189,-0.251 -0.376,-0.502 -0.559,-0.757l-0.747,-1.041l1.17,-0.522c4.277,-1.91 8.298,-4.393 11.949,-7.382c2.732,-2.235 5.23,-4.725 7.426,-7.4l0.798,-0.973l15.223,18.124c0.652,0.768 1.269,1.494 1.994,2.069l0.118,0.093c0.359,0.281 0.807,0.631 1.092,1.187c0.707,1.414 -0.209,2.883 -0.601,3.511c-3.191,5.016 -6.85,10.063 -12.016,13.066c-1.466,0.852 -3.684,1.868 -5.934,1.868" style="fill:#686d69;fill-rule:nonzero;"/><path d="M257.895,243.719l-1.596,1.945c-2.153,2.622 -4.602,5.063 -7.28,7.255c-3.581,2.93 -7.521,5.366 -11.714,7.237l-2.34,1.045l1.494,2.082c0.181,0.252 0.366,0.5 0.554,0.75l0.226,0.303c3.653,4.889 7.435,9.736 11.245,14.406c0.705,0.868 1.424,1.736 2.141,2.604l0.756,0.913c0.191,0.227 0.371,0.47 0.558,0.721c0.749,1.002 1.681,2.25 3.088,2.819c0.831,0.343 1.762,0.519 2.752,0.519c2.484,-0 4.884,-1.093 6.461,-2.011c5.358,-3.113 9.11,-8.279 12.367,-13.399c0.452,-0.725 1.626,-2.609 0.662,-4.539c-0.397,-0.777 -0.992,-1.242 -1.385,-1.55l-0.111,-0.087c-0.648,-0.513 -1.232,-1.201 -1.849,-1.929l-0.104,-0.121l-5.718,-6.809l-8.589,-10.227l-1.618,-1.927Zm0.019,3.271c4.771,5.681 9.543,11.363 14.314,17.044c0.698,0.822 1.396,1.661 2.244,2.333c0.345,0.274 0.725,0.539 0.928,0.937c0.398,0.795 -0.088,1.731 -0.557,2.482c-3.119,4.904 -6.635,9.8 -11.654,12.715c-1.509,0.879 -3.515,1.727 -5.41,1.727c-0.679,0 -1.345,-0.109 -1.968,-0.366c-1.158,-0.468 -2.015,-1.979 -2.819,-2.933c-0.963,-1.166 -1.935,-2.333 -2.889,-3.509c-3.835,-4.7 -7.564,-9.48 -11.187,-14.331c-0.256,-0.344 -0.512,-0.681 -0.76,-1.024c4.375,-1.954 8.483,-4.498 12.185,-7.529c2.766,-2.262 5.311,-4.789 7.573,-7.546" style="fill-rule:nonzero;"/><path d="M235.852,258.526c-1.681,0 -2.607,-1.138 -3.359,-2.368c-1.236,-2.024 -2.482,-4.11 -3.809,-6.379c-2.498,-4.274 -4.9,-8.55 -7.14,-12.711c-0.18,-0.348 -0.385,-0.742 -0.414,-1.238c-0.106,-1.534 1.456,-2.376 1.97,-2.652c6.22,-3.367 11.978,-7.557 17.11,-12.453l0.946,-0.902l0.671,1.121l0.65,1.063c3.665,5.862 7.663,11.571 11.877,16.961c0.664,0.839 1.909,2.408 1.573,4.202c-0.172,0.852 -0.631,1.514 -1.048,2.07c-4.28,5.726 -10.063,10.135 -16.72,12.751c-0.949,0.37 -1.659,0.535 -2.307,0.535" style="fill:#686d69;fill-rule:nonzero;"/><path d="M241.379,218.166l-1.89,1.803c-5.064,4.831 -10.747,8.966 -16.889,12.291c-1.767,0.952 -2.614,2.182 -2.512,3.652c0.042,0.7 0.328,1.25 0.498,1.578l0.007,0.014l0.031,0.058c2.244,4.169 4.652,8.457 7.157,12.744c1.333,2.278 2.583,4.37 3.821,6.397c0.816,1.336 2.036,2.868 4.25,2.868c0.784,0 1.612,-0.187 2.685,-0.606c6.842,-2.688 12.782,-7.218 17.18,-13.101c0.519,-0.692 1.029,-1.472 1.232,-2.47c0.429,-2.293 -1.064,-4.176 -1.781,-5.08c-4.181,-5.347 -8.158,-11.028 -11.812,-16.872l-0.243,-0.397c-0.132,-0.214 -0.263,-0.427 -0.391,-0.64l-1.343,-2.239Zm-0.448,3.315c0.212,0.353 0.433,0.707 0.654,1.068c3.684,5.894 7.669,11.593 11.946,17.063c0.778,0.98 1.6,2.138 1.37,3.367c-0.124,0.609 -0.487,1.139 -0.858,1.634c-4.135,5.531 -9.834,9.879 -16.267,12.406c-0.776,0.303 -1.395,0.463 -1.924,0.463c-1.01,-0 -1.683,-0.585 -2.467,-1.868c-1.29,-2.112 -2.553,-4.233 -3.799,-6.362c-2.448,-4.188 -4.825,-8.412 -7.123,-12.68c-0.131,-0.256 -0.273,-0.512 -0.291,-0.803c-0.052,-0.769 0.733,-1.3 1.423,-1.671c6.3,-3.41 12.149,-7.669 17.336,-12.617" style="fill-rule:nonzero;"/><path d="M220.346,231.138c-1.433,0 -2.052,-1.201 -2.257,-1.597c-1.216,-2.351 -2.474,-4.87 -3.846,-7.702c-2.486,-5.123 -4.884,-10.398 -7.126,-15.678l-0.472,-1.114l1.273,-0.332c6.619,-1.904 12.337,-6.352 18.093,-11.13l1.017,-0.843l0.587,1.183c3.533,7.131 7.398,14.209 11.483,21.038c0.193,0.327 0.515,0.869 0.463,1.545c-0.076,0.766 -0.566,1.273 -0.83,1.546c-4.688,4.912 -8.82,8.389 -13.002,10.937c-0.928,0.569 -2.172,1.282 -3.538,1.733c-0.688,0.225 -1.271,0.414 -1.845,0.414" style="fill:#686d69;fill-rule:nonzero;"/><path d="M227.377,191.094l-2.033,1.688c-5.658,4.696 -11.27,9.065 -17.703,10.926l-0.067,0.017l-2.375,0.591l0.956,2.253c2.25,5.298 4.655,10.589 7.148,15.727c1.375,2.838 2.637,5.365 3.859,7.726c0.739,1.433 1.811,2.161 3.184,2.161c0.74,-0 1.427,-0.223 2.154,-0.46c1.488,-0.492 2.799,-1.243 3.778,-1.843c4.257,-2.594 8.458,-6.126 13.213,-11.11c0.293,-0.302 0.997,-1.031 1.107,-2.136c0.083,-1.051 -0.379,-1.828 -0.601,-2.202c-4.074,-6.811 -7.924,-13.864 -11.446,-20.97l-1.174,-2.368Zm-0.699,3.295c3.562,7.184 7.406,14.227 11.523,21.11c0.167,0.282 0.345,0.591 0.318,0.928c-0.036,0.353 -0.292,0.644 -0.54,0.9c-3.861,4.048 -8.022,7.865 -12.794,10.772c-1.052,0.644 -2.147,1.246 -3.322,1.635c-0.619,0.2 -1.106,0.359 -1.517,0.359c-0.528,-0 -0.931,-0.261 -1.328,-1.031c-1.317,-2.545 -2.589,-5.107 -3.835,-7.679c-2.5,-5.151 -4.869,-10.364 -7.104,-15.631c0.035,-0.008 0.071,-0.018 0.106,-0.026c6.998,-2.014 12.883,-6.68 18.493,-11.337" style="fill-rule:nonzero;"/><path d="M440.28,324.522c-1.009,-0.33 -9.054,-0.571 -11.697,-0.65c-0.806,-0.025 -1.387,-0.042 -1.61,-0.053c-4.418,-0.242 -8.998,-0.447 -14.01,-0.627c-9.209,-0.331 -18.638,-0.502 -28.025,-0.512c-9.392,0 -18.826,0.165 -28.034,0.486c-2.31,0.079 -4.626,0.175 -6.936,0.271c-0.372,0.017 -0.763,0.068 -1.191,0.124c-0.71,0.091 -1.514,0.196 -2.287,0.196c-1.27,-0 -2.167,-0.298 -2.744,-0.909c-0.545,-0.58 -0.832,-1.499 -1.085,-2.308c-0.092,-0.295 -0.177,-0.572 -0.268,-0.788c-0.427,-1.012 -0.864,-2.016 -1.327,-3.013c-0.984,-2.144 -1.943,-3.954 -2.933,-5.541c-0.193,-0.306 -0.395,-0.622 -0.599,-0.932l-0.024,-0.023l-0.056,-0.085c-0.388,-0.576 -0.791,-1.141 -1.194,-1.706c-0.98,-1.373 -1.995,-2.792 -2.772,-4.36c-1.08,-2.188 -1.642,-4.548 -2.184,-6.828c-0.213,-0.897 -0.426,-1.794 -0.67,-2.679c-1.035,-3.701 -2.527,-6.165 -4.56,-7.532l-1.377,-0.925l1.43,-0.842c2.027,-1.193 4.35,-1.937 6.717,-2.155c0.284,-0.029 0.583,-0.049 0.881,-0.049c0.484,0 0.914,0.052 1.315,0.16c0.98,0.258 1.773,0.85 2.472,1.372c18.334,13.612 41.249,21.093 64.562,21.093c8.022,0 15.969,-0.896 23.619,-2.664c1.151,-0.267 2.291,-0.533 3.473,-0.533c0.641,0 1.222,0.078 1.779,0.238c1.13,0.322 2.19,0.994 3.332,2.113c4.751,4.618 6.211,11.149 7.508,18.583l-2.056,0.37c0.075,0.409 0.378,0.652 0.551,0.708" style="fill:#a7abaa;fill-rule:nonzero;"/><path d="M333.726,282.037c-0.303,0 -0.629,0.018 -0.997,0.056c-2.5,0.229 -4.973,1.022 -7.13,2.292l-2.863,1.683l2.756,1.852c1.817,1.222 3.171,3.495 4.136,6.949c0.236,0.856 0.442,1.721 0.66,2.637c0.555,2.337 1.13,4.755 2.262,7.048c0.816,1.645 1.855,3.1 2.86,4.506c0.397,0.557 0.796,1.115 1.177,1.681l0.113,0.169l0.019,0.018c0.181,0.277 0.359,0.557 0.533,0.832c0.961,1.54 1.899,3.312 2.864,5.41c0.406,0.876 0.823,1.822 1.316,2.99c0.061,0.146 0.147,0.423 0.231,0.69c0.287,0.918 0.612,1.958 1.32,2.712c1.169,1.239 2.929,1.239 3.507,1.239c0.84,0 1.68,-0.108 2.419,-0.205c0.41,-0.052 0.796,-0.102 1.043,-0.112c2.322,-0.098 4.66,-0.195 6.986,-0.274c9.208,-0.322 18.627,-0.485 28.001,-0.485c9.375,0.01 18.793,0.181 27.988,0.511c5.023,0.181 9.597,0.386 13.984,0.626c0.236,0.012 0.827,0.03 1.645,0.054c6.792,0.204 10.64,0.409 11.437,0.611c-0.41,-0.104 -1.125,-0.611 -1.292,-1.526l4.113,-0.736c-1.025,-5.875 -2.428,-13.923 -7.813,-19.156c-1.266,-1.24 -2.466,-1.994 -3.771,-2.367c-0.649,-0.186 -1.325,-0.276 -2.066,-0.276c-1.302,-0 -2.557,0.292 -3.664,0.549c-7.615,1.761 -15.483,2.648 -23.426,2.648c-23.089,-0 -45.785,-7.409 -63.904,-20.861c-0.767,-0.573 -1.685,-1.259 -2.869,-1.571c-0.48,-0.13 -1,-0.194 -1.575,-0.194m-0,2.09c0.352,-0 0.703,0.033 1.042,0.124c0.805,0.212 1.493,0.734 2.157,1.228c18.667,13.859 41.924,21.273 65.149,21.273c8.019,0 16.034,-0.884 23.855,-2.691c1.06,-0.247 2.157,-0.506 3.235,-0.506c0.504,0 1.003,0.056 1.492,0.196c1.114,0.319 2.059,1.043 2.89,1.856c4.718,4.586 6.078,11.531 7.21,18.017c-0.097,-0.53 -12.494,-0.787 -13.731,-0.849c-4.675,-0.256 -9.349,-0.459 -14.023,-0.626c-9.349,-0.337 -18.705,-0.504 -28.063,-0.513c-9.357,-0 -18.714,0.158 -28.072,0.485c-2.333,0.08 -4.674,0.177 -7.007,0.275c-0.829,0.036 -2.186,0.316 -3.37,0.316c-0.824,-0 -1.563,-0.135 -1.984,-0.581c-0.557,-0.593 -0.831,-2.024 -1.149,-2.783c-0.433,-1.025 -0.875,-2.042 -1.343,-3.049c-0.892,-1.944 -1.864,-3.844 -2.995,-5.655c-0.213,-0.336 -0.433,-0.68 -0.654,-1.016c-0.018,-0.018 -0.027,-0.035 -0.044,-0.053c-1.326,-1.97 -2.845,-3.826 -3.897,-5.947c-1.44,-2.916 -1.917,-6.185 -2.784,-9.322c-0.874,-3.127 -2.288,-6.308 -4.983,-8.12c1.909,-1.122 4.073,-1.812 6.282,-2.014c0.261,-0.026 0.525,-0.045 0.787,-0.045" style="fill-rule:nonzero;"/><path d="M289.542,145.223c1.807,-4.576 4.085,-9.538 8.525,-12.098c2.508,-1.724 5.59,0.637 5.851,3.322c1.724,8.881 -2.048,18.179 -7.909,24.803c-2.11,2.758 -7.48,2.695 -8.41,-1.056c-0.857,-5.025 0.376,-10.196 1.943,-14.971m31.74,-11.335c-0.167,-6.217 -0.742,-13.76 -7.032,-16.842c-4.482,-0.752 -9.172,0.115 -13.08,2.413c-7.303,4.273 -12.077,11.566 -15.692,19.005c-3.803,8.264 -5.976,17.301 -6.039,26.411c-0.01,0.251 -0.01,0.491 -0.01,0.742c0.418,5.495 1.065,11.617 5.224,15.692c2.423,2.476 6.205,2.194 9.371,1.881c6.582,-1.996 11.503,-7.376 15.462,-12.746c7.241,-10.479 11.158,-23.1 11.817,-35.773c-0.011,-0.261 -0.011,-0.522 -0.021,-0.783" style="fill:#a7abaa;fill-rule:nonzero;"/><path d="M538.278,199.101c-0.366,10.093 -2.602,20.227 -7.429,29.159c-2.946,5.099 -7.135,9.612 -12.359,12.391c-2.737,1.327 -5.715,2.09 -8.41,3.511c0.25,-0.439 0.501,-0.878 0.762,-1.317c10.218,-17.959 16.852,-37.945 19.443,-58.454c0.638,-2.612 3.145,-0.501 4.346,0.491c2.936,2.048 3.856,5.412 3.971,8.86l-0,0.073c0.062,1.797 -0.105,3.625 -0.324,5.286" style="fill:#a7abaa;fill-rule:nonzero;"/><path d="M463.066,42.743c-1.703,7.365 -1.327,15.003 -2.905,22.358c-2.998,-1.024 -5.903,-2.309 -8.974,-3.082c0.136,-0.272 0.261,-0.544 0.397,-0.826c2.862,-5.955 5.537,-12.014 8.285,-18.032c0.47,-1.452 1.922,-0.585 2.998,-0.439c0.073,0.011 0.136,0.021 0.199,0.021" style="fill:#a7abaa;fill-rule:nonzero;"/><path d="M197.873,566.665c-9.701,1.917 -19.606,2.369 -29.361,3.915c-3.208,-10.427 -4.215,-21.365 -6.627,-31.978c-1.459,-7.987 -3.703,-15.851 -4.215,-23.963c-0.265,0.203 -0.795,0.627 -1.07,0.839c-1.368,8.395 -3.86,16.559 -5.751,24.847c-1.998,8.218 -3.57,16.541 -5.867,24.687c-0.76,2.785 -1.158,5.735 -2.502,8.316c-3.763,1.21 -7.863,1.316 -11.777,1.97c-0.892,-0.84 -1.29,-2.014 -1.873,-3.057c-3.084,-6.521 -6.592,-12.821 -9.852,-19.254c-2.377,-3.976 -4.295,-8.2 -6.592,-12.211c-3.155,-5.726 -5.744,-11.796 -9.34,-17.239c1.114,19.687 0.442,39.426 0.99,59.13c-3.835,1.855 -8.156,1.97 -12.273,2.721c-5.541,0.946 -11.107,1.75 -16.683,2.359c-0.494,-0.194 -1.475,-0.583 -1.97,-0.777c-1.105,-7.89 0.548,-15.817 0.16,-23.733c-0.372,-7.369 1.13,-14.659 0.874,-22.019c-0.212,-6.539 1.263,-12.989 0.884,-19.527c-0.301,-4.746 1.077,-9.393 0.892,-14.13c-0.124,-8.243 0.918,-16.452 0.884,-24.687c-0.018,-2.863 0.291,-5.717 0.936,-8.491c9.905,-1.193 19.775,-2.589 29.653,-3.994c2.024,3.711 3.897,7.501 5.868,11.239c0.945,1.732 1.802,3.525 2.642,5.319c1.528,2.916 2.835,5.947 4.427,8.845c0.636,1.132 1.227,2.307 1.784,3.499c3.12,6.636 6.415,13.201 9.675,19.749c3.287,-18.176 6.098,-36.519 9.569,-54.677c10.56,-2.669 21.658,-2.952 32.341,-5.169c0.256,0.141 0.768,0.407 1.025,0.548c7.378,34.769 15.585,69.37 23.582,104.007c0.539,1.035 0.257,2.024 -0.433,2.916" style="fill:#fff;fill-rule:nonzero;"/><path d="M236.557,522.229c2.254,-13.166 4.825,-26.295 7.67,-39.355c3.711,12.511 8.482,24.679 12.679,37.022c-6.794,0.68 -13.554,1.671 -20.349,2.333m62.205,29.442c-5.981,-16.179 -12.247,-32.251 -17.919,-48.537c-6.283,-16.602 -11.982,-33.416 -18.529,-49.905c-12.795,0.867 -25.598,2.474 -38.392,3.376c-2.908,0.787 -2.633,4.532 -3.243,6.883c-6.274,32.888 -12.193,65.836 -17.805,98.83c0.178,0.566 0.531,1.706 0.708,2.271c8.19,-0.592 16.346,-1.493 24.493,-2.598c1.316,-0.282 3.313,-0.556 3.287,-2.332c0.981,-5.029 1.502,-10.145 2.712,-15.137c9.915,-1.484 19.925,-2.35 29.892,-3.455c2.695,5.302 3.747,11.258 5.7,16.85c2.872,0 5.76,0.115 8.632,-0.052c7.016,-1.211 14.235,-0.884 21.215,-2.412c-0.133,-1.299 -0.247,-2.589 -0.751,-3.782" style="fill:#fff;fill-rule:nonzero;"/><path d="M394.067,549.912c-1.114,0.53 -2.262,1.069 -3.525,0.963c-8.908,0.009 -17.805,1.194 -26.703,0.637c-1.361,0.079 -2.35,-0.92 -2.607,-2.174c-2.333,-7.078 -7.166,-12.856 -10.744,-19.28c-2.996,-4.241 -5.444,-8.827 -8.403,-13.078c-3.261,-4.868 -5.983,-10.24 -10.1,-14.455c1.671,4.48 0.68,9.305 1.37,13.944c0.83,6.123 0.106,12.343 1.219,18.431c0.513,4.445 -0.106,8.96 0.698,13.395c0.106,1.75 1.078,4.507 -1.36,5.063c-6.469,0.531 -12.919,1.264 -19.369,1.918c-2.907,-0.115 -6.079,0.636 -8.695,-0.973c-0.176,-2.288 -0.309,-4.577 -0.654,-6.839c-0.839,-4.744 -0.026,-9.595 -0.882,-14.34c-0.813,-4.613 0.008,-9.348 -0.902,-13.943c-0.795,-4.118 -0.036,-8.332 -0.725,-12.45c-0.945,-5.275 -0.238,-10.648 -1.007,-15.941c-0.645,-12.113 -1.467,-24.218 -2.217,-36.314c-0.257,-1.671 0.724,-3.385 2.561,-3.279c9.42,-0.212 18.848,-0.874 28.24,-1.75c5.691,8.024 10.215,16.798 15.799,24.892c3.685,6.273 7.802,12.282 11.442,18.59c1.609,2.987 3.465,5.832 5.549,8.51c0.31,-9.765 -1.219,-19.466 -0.928,-29.23c-1.148,-7.864 -0.565,-15.816 -1.298,-23.715c5.125,-1.202 10.391,-0.902 15.604,-1.237c5.469,-0.062 10.966,-1.114 16.435,-0.399c1.856,34.302 0.848,68.709 1.202,103.054" style="fill:#fff;fill-rule:nonzero;"/><path d="M444.679,452.691c-1.423,19.483 -4.02,38.886 -5.638,58.352c-1.263,12.14 -2.262,24.299 -3.657,36.422c-0.248,1.82 -0.955,4.453 -3.305,4.196c-8.27,0.098 -16.542,-0.458 -24.812,-0.777c-1.255,0.159 -2.208,-0.698 -3.251,-1.184c2.121,-20.172 3.314,-40.442 5.001,-60.64c-0.15,-5.055 1.228,-10.003 0.91,-15.057c0.919,-8.668 1.308,-17.398 2.2,-26.076c0.371,-0.299 1.114,-0.9 1.485,-1.209c10.391,-0.398 20.765,0.583 31.146,0.715c0.742,1.705 0.204,3.499 -0.079,5.258" style="fill:#fff;fill-rule:nonzero;"/><path d="M483.893,514.33c4.418,-11.036 8.562,-22.178 12.53,-33.382c0.618,-1.502 0.989,-3.164 2.067,-4.418c1.061,9.816 2.571,19.58 3.693,29.397c0.627,3.331 0.486,6.777 1.493,10.046c-6.583,-0.68 -13.156,-1.484 -19.783,-1.643m45.002,-21.056c-2.466,-14.296 -4.807,-28.611 -7.114,-42.934c-5.513,-0.538 -10.992,-1.263 -16.541,-1.158c-7.015,-1.007 -14.11,-0.53 -21.145,-1.281c-2.058,-0.557 -2.712,1.741 -3.366,3.154c-6.22,15.508 -13.192,30.714 -18.927,46.425c-5.972,14.491 -11.468,29.176 -17.194,43.773c-1.113,3.163 -2.739,6.239 -2.871,9.676c3.985,1.184 8.191,0.583 12.264,1.174c5.266,0.69 10.586,0.505 15.887,0.557c2.448,-5.469 3.675,-11.522 6.246,-16.885c9.862,0.061 19.625,2.394 29.53,1.785c1.564,6.106 1.149,12.467 2.448,18.608c3.031,1.131 6.309,0.724 9.464,1.246c3.401,0.6 6.865,0.388 10.302,0.707c3.703,0.318 7.59,1.36 11.16,-0.256c-3.322,-21.542 -6.918,-43.04 -10.143,-64.591" style="fill:#fff;fill-rule:nonzero;"/><path d="M541.98,346.235c-5.876,5.496 -10.391,12.423 -13.033,20.022c-0,-0.389 -8.871,-4.17 -9.702,-4.532c-1.104,-0.468 -3.817,-0.981 -4.585,-1.874c-0.849,-0.998 -0.01,-2.951 0.22,-4.188c1.326,-7.263 2.456,-14.552 3.402,-21.869c7.97,4.012 15.87,8.156 23.698,12.441" style="fill:#686d69;fill-rule:nonzero;"/><path d="M528.947,366.257c0,-0.388 -8.871,-4.17 -9.701,-4.533c-1.105,-0.468 -3.818,-0.98 -4.587,-1.873c-0.848,-0.998 -0.008,-2.951 0.222,-4.188c1.324,-7.263 2.456,-14.553 3.401,-21.869c7.97,4.011 15.869,8.156 23.698,12.442c-5.875,5.495 -10.391,12.423 -13.033,20.021m14.036,-21.855c-7.745,-4.24 -15.74,-8.437 -23.762,-12.474l-2.633,-1.326l-0.379,2.924c-0.943,7.301 -2.082,14.623 -3.385,21.761c-0.036,0.2 -0.11,0.48 -0.188,0.778c-0.37,1.408 -0.93,3.537 0.431,5.139c0.869,1.009 2.279,1.49 4.179,2.059c0.464,0.14 0.943,0.283 1.184,0.386l0.432,0.187c4.813,2.073 7.002,3.09 7.996,3.586l-0,2.86c0.939,0.062 1.855,0.217 2.743,0.456l1.32,-3.794c2.529,-7.275 6.847,-13.908 12.487,-19.183l2.108,-1.973l-2.533,-1.386Z" style="fill-rule:nonzero;"/><path d="M556.34,384.475c-3.258,-2.138 -6.52,-4.273 -9.78,-6.406l-11.347,-7.43c-0.17,-0.11 -0.381,-0.226 -0.604,-0.349c-0.928,-0.514 -2.084,-1.153 -2.414,-2.269c-0.329,-1.116 0.332,-2.433 0.814,-3.393l0.163,-0.33c2.642,-5.429 5.903,-10.561 9.692,-15.264l0.431,-0.522c0.231,-0.285 0.685,-0.845 1.43,-1.008c0.133,-0.031 0.277,-0.047 0.424,-0.047c0.547,-0 1.018,0.217 1.444,0.452c8.248,4.485 16.364,9.488 24.117,14.866l1.068,0.741l-0.954,0.883c-5.792,5.368 -10.263,12.131 -12.928,19.556l-0.447,1.249l-1.109,-0.729Z" style="fill:#686d69;fill-rule:nonzero;"/><path d="M545.149,346.412c-0.225,0 -0.447,0.025 -0.664,0.074c-1.085,0.239 -1.737,1.04 -2.015,1.383c-0.054,0.063 -0.129,0.155 -0.205,0.247l-0.187,0.228c-3.867,4.8 -7.168,9.998 -9.84,15.487c-0.052,0.111 -0.106,0.216 -0.163,0.331c-0.529,1.053 -1.327,2.644 -0.882,4.153c0.451,1.529 1.873,2.315 2.911,2.889c0.199,0.111 0.389,0.213 0.545,0.315l3.567,2.336l3.573,2.341l3.972,2.6c3.335,2.181 6.672,4.364 10.005,6.553l2.218,1.456l0.895,-2.496c2.61,-7.27 6.986,-13.889 12.655,-19.143l1.907,-1.768l-2.137,-1.482c-7.782,-5.399 -15.93,-10.421 -24.217,-14.927c-0.513,-0.283 -1.153,-0.577 -1.938,-0.577m-0,2.09c0.324,-0 0.647,0.161 0.94,0.323c8.27,4.496 16.293,9.445 24.024,14.808c-5.911,5.479 -10.479,12.388 -13.2,19.969c-4.657,-3.057 -9.322,-6.105 -13.979,-9.154c-2.385,-1.564 -4.762,-3.118 -7.148,-4.682c-0.804,-0.522 -2.315,-1.114 -2.589,-2.042c-0.248,-0.839 0.575,-2.253 0.919,-2.977c2.607,-5.355 5.823,-10.418 9.561,-15.057c0.141,-0.168 0.274,-0.336 0.415,-0.504c0.229,-0.282 0.495,-0.583 0.857,-0.662c0.066,-0.015 0.133,-0.022 0.2,-0.022" style="fill-rule:nonzero;"/><path d="M570.469,394.095c-2.219,-1.626 -4.435,-3.243 -6.652,-4.86c-0.28,-0.204 -0.552,-0.391 -0.814,-0.571c-1.687,-1.164 -3.601,-2.483 -2.315,-5.705c1.969,-4.957 4.689,-9.588 8.085,-13.764c0.791,-0.981 1.669,-1.982 2.604,-2.974c0.228,-0.247 0.717,-0.775 1.479,-0.836l0.169,-0.01c0.583,0 1.048,0.291 1.298,0.446c6.077,3.708 11.755,8.097 17.246,12.342l11.723,9.052l-1.439,0.757c-6.732,3.543 -12.504,9.13 -16.252,15.734l-0.578,1.021l-14.554,-10.632Z" style="fill:#686d69;fill-rule:nonzero;"/><path d="M573.024,364.331c-0.097,-0 -0.195,0.005 -0.293,0.015c-1.143,0.11 -1.857,0.88 -2.127,1.172c-0.944,1 -1.838,2.022 -2.647,3.023c-3.456,4.252 -6.231,8.976 -8.241,14.033c-1.593,3.994 0.988,5.773 2.695,6.949c0.253,0.174 0.517,0.356 0.786,0.554c2.221,1.619 4.437,3.234 6.654,4.859l6.789,4.96l6.82,4.983l1.894,1.383l1.156,-2.039c3.65,-6.433 9.271,-11.875 15.829,-15.326l2.881,-1.515l-2.577,-1.988l-5.208,-4.022l-5.228,-4.036c-5.51,-4.261 -11.21,-8.666 -17.347,-12.412c-0.301,-0.187 -0.956,-0.593 -1.836,-0.593m0,2.089c0.263,0 0.516,0.144 0.747,0.288c6.009,3.667 11.593,7.978 17.161,12.282c3.481,2.686 6.954,5.372 10.435,8.058c-6.937,3.649 -12.804,9.322 -16.674,16.144c-4.533,-3.313 -9.074,-6.627 -13.608,-9.941c-2.218,-1.626 -4.435,-3.242 -6.653,-4.86c-2.085,-1.528 -3.905,-2.208 -2.774,-5.045c1.934,-4.868 4.62,-9.428 7.925,-13.493c0.814,-1.007 1.671,-1.978 2.554,-2.916c0.221,-0.238 0.477,-0.485 0.804,-0.512c0.028,-0.003 0.056,-0.005 0.083,-0.005" style="fill-rule:nonzero;"/><path d="M550.428,402.578c0.115,2.528 -0.282,5.088 -1.055,7.47c-2.633,5.976 -7.386,11.461 -14.021,12.871c-8.546,2.821 -19.474,-3.071 -20.226,-12.432c-0.042,-0.523 -0.052,-1.055 -0.052,-1.588c0.01,-0.011 -0,-0.032 -0,-0.052c0.083,-7.032 3.844,-14.22 10.123,-17.615c6.979,-3.96 17.552,-3.552 22.651,3.228c1.671,2.424 2.455,5.235 2.58,8.118" style="fill:#fff;fill-rule:nonzero;"/><path d="M134.387,461.986c0.151,0.583 0.31,1.166 0.468,1.75c-0.087,-0.408 -0.132,-0.796 -0.132,-1.175c-0,-0.169 0.009,-0.337 0.027,-0.504c0.018,-0.124 0.026,-0.248 0.052,-0.372c0.018,-0.097 0.036,-0.203 0.063,-0.3c-0,-0.009 -0,-0.009 0.008,-0.018c0.009,-0.043 0.018,-0.088 0.036,-0.132c0.017,-0.088 0.043,-0.177 0.079,-0.256c0.026,-0.107 0.071,-0.212 0.115,-0.319l-0.716,1.326Z" style="fill:#030503;fill-rule:nonzero;"/><path d="M288.377,23.803c-0.05,-0.295 -0.081,-0.595 -0.088,-0.899c-0.047,-2.02 1.371,-4.223 3.39,-4.271c1.559,-0.038 2.854,1.147 3.891,2.311c2.592,2.91 4.74,6.184 6.831,9.474c4.396,6.918 8.587,13.967 12.564,21.135c1.369,2.468 2.719,4.965 3.629,7.637c0.489,1.436 0.84,3.04 0.257,4.442c-2.986,7.169 -12.792,-9.519 -14.157,-11.764c-4.742,-7.796 -9.484,-15.592 -14.227,-23.388c-0.891,-1.466 -1.806,-3.008 -2.09,-4.677" style="fill:#030503;fill-rule:nonzero;"/><path d="M542.349,33.894c0.155,-0.259 0.311,-0.517 0.467,-0.775c0.713,-1.181 1.468,-2.394 2.606,-3.171c1.14,-0.777 2.777,-1.001 3.865,-0.153c1.698,1.323 1.016,3.993 0.171,5.972c-4.764,11.151 -9.839,22.199 -16.025,32.629c-0.713,1.203 -1.476,2.433 -2.632,3.218c-4.222,2.866 -5.571,-2.251 -4.425,-5.368c4.155,-11.305 9.774,-22.023 15.973,-32.352" style="fill:#030503;fill-rule:nonzero;"/><path d="M621.795,95.568c-3.649,3.8 -7.749,7.264 -10.541,11.797c-1.422,2.014 -2.465,4.284 -4.021,6.203c-0.866,1.925 -1.749,3.843 -2.589,5.778c-0.927,-1.114 -1.334,-2.518 -1.324,-3.95c-2.395,-5.991 -5.586,-11.716 -9.853,-16.585c-3.41,-3.914 -7.855,-6.662 -12.097,-9.569c9.085,-4.824 16.771,-12.105 22.356,-20.72c2.324,-3.623 3.517,-7.785 5.301,-11.664c2.881,11.929 11.327,22.329 22.055,28.187c0.972,0.574 1.926,1.184 2.889,1.803c-3.993,3.004 -8.695,5.071 -12.176,8.72m27.312,-11.751c-1.034,-0.716 -2.465,-1.158 -3.702,-1.458c-6.283,-1.521 -12.229,-4.56 -16.904,-9.022c-8.5,-8.129 -12.07,-20.031 -14.932,-31.438c-0.592,-2.368 -1.6,-5.16 -3.985,-5.629c-1.635,-0.317 -3.296,0.707 -4.232,2.086c-0.946,1.369 -1.317,3.04 -1.697,4.665c-2.607,11.159 -6.494,22.549 -14.641,30.617c-3.526,3.499 -8.041,6.203 -12.406,8.756c-2.959,1.741 -9.145,4.046 -10.647,7.317c-1.175,2.543 1.529,2.985 3.684,4.081c11.408,5.797 21.463,11.646 25.439,24.652c1.803,5.894 1.97,12.097 2.21,18.212c0.061,1.635 -0.557,6.821 0.724,7.97c1.722,1.555 4.886,-0.618 6,-1.98c1.422,-1.714 2.119,-3.887 2.809,-6.008c3.879,-11.84 8.809,-23.866 17.973,-32.322c6.627,-6.105 14.985,-9.896 22.752,-14.456c1.405,-0.83 2.96,-1.953 2.995,-3.569c0.018,-1.078 -0.574,-1.873 -1.44,-2.474" style="fill:#030503;fill-rule:nonzero;"/><path d="M633.971,86.847c-3.994,3.004 -8.694,5.072 -12.176,8.721c-3.649,3.8 -7.748,7.263 -10.541,11.796c-1.423,2.015 -2.466,4.286 -4.02,6.203c-0.866,1.927 -1.75,3.844 -2.589,5.779c-0.928,-1.113 -1.334,-2.518 -1.326,-3.95c-2.395,-5.99 -5.584,-11.716 -9.852,-16.585c-3.41,-3.914 -7.855,-6.662 -12.096,-9.569c9.083,-4.825 16.77,-12.106 22.354,-20.721c2.325,-3.622 3.517,-7.784 5.303,-11.662c2.88,11.928 11.327,22.327 22.053,28.186c0.973,0.574 1.927,1.184 2.89,1.802" style="fill:#fcad08;fill-rule:nonzero;"/><path d="M273.85,54.299c0.453,-0.389 1.007,-0.633 1.627,-0.64c1.103,-0.014 2.074,0.682 2.942,1.363c7.661,6.007 14.335,13.269 19.674,21.409c0.686,1.044 1.377,2.229 1.181,3.463c-0.197,1.237 -1.303,2.198 -2.52,2.49c-5.445,1.303 -10.166,-6.84 -13.039,-10.295c-2.744,-3.302 -5.737,-6.388 -8.521,-9.657c-1.199,-1.407 -2.407,-2.958 -2.612,-4.796c-0.137,-1.22 0.369,-2.564 1.268,-3.337" style="fill:#030503;fill-rule:nonzero;"/><path d="M556.439,62.02c0.997,-0.686 2.074,-1.227 3.265,-1.36c1.83,-0.206 3.935,0.957 4.09,2.792c0.115,1.364 -0.819,2.569 -1.713,3.606c-5.19,6.03 -10.81,11.688 -16.803,16.92c-0.814,0.712 -1.664,1.431 -2.688,1.779c-2.007,0.684 -4.293,-0.718 -3.925,-2.986c0.144,-0.891 0.627,-1.685 1.114,-2.444c4.122,-6.436 9.241,-12.231 15.116,-17.117c0.496,-0.411 1.008,-0.821 1.544,-1.19" style="fill:#030503;fill-rule:nonzero;"/><path d="M654.594,132.107c0.815,-0.671 1.643,-1.327 2.488,-1.961c1.758,-1.323 4.403,-2.503 5.945,-0.933c0.868,0.883 0.911,2.333 0.437,3.476c-0.474,1.143 -1.368,2.05 -2.242,2.927c-21.078,21.16 -42.232,42.251 -63.966,62.737c-0.933,0.88 -1.896,1.777 -3.08,2.271c-3.205,1.339 -5.23,-1.307 -4.021,-4.298c0.52,-1.287 1.462,-2.352 2.39,-3.384c17.027,-18.933 35.63,-36.376 54.207,-53.792c2.563,-2.403 5.132,-4.81 7.842,-7.043" style="fill:#030503;fill-rule:nonzero;"/><path d="M296.014,161.246c-2.121,2.757 -7.483,2.704 -8.411,-1.051c-0.858,-5.028 0.371,-10.197 1.935,-14.968c1.811,-4.577 4.09,-9.543 8.526,-12.106c2.509,-1.723 5.594,0.636 5.85,3.322c1.722,8.889 -2.042,18.184 -7.9,24.803" style="fill:#030503;fill-rule:nonzero;"/><path d="M661.81,170.973c1.18,-0.468 2.387,-0.853 3.632,-1.115c1.647,-0.345 4.01,0.091 4.01,1.773c-0,0.572 -0.314,1.093 -0.653,1.553c-1.417,1.916 -3.42,3.302 -5.401,4.629c-10.229,6.85 -20.892,13.053 -31.902,18.561c-3.183,1.593 -9.345,0.173 -4.555,-3.402c9.119,-6.808 18.624,-13.106 28.494,-18.772c2.065,-1.183 4.17,-2.35 6.375,-3.227" style="fill:#030503;fill-rule:nonzero;"/><path d="M121.469,217.31c-1.308,5.187 -2.139,10.524 -2.209,15.878c-4.003,-5.54 -9.251,-10.064 -14.702,-14.12c-3.12,-2.465 -7.051,-3.393 -10.427,-5.39c3.658,-3.066 7.369,-6.343 9.242,-10.859c2.307,-4.047 2.483,-8.738 3.189,-13.218c2.492,2.288 4.357,5.212 7.131,7.2c4.533,3.509 10.091,5.134 15.455,6.902c-3.199,4.117 -6.38,8.465 -7.679,13.607m20.852,-19.077c-0.635,-2.085 -3.436,-1.908 -5.142,-1.971c-2.607,-0.097 -5.204,-0.371 -7.757,-0.918c-4.931,-1.043 -9.711,-3.102 -13.414,-6.591c-4.09,-3.862 -6.538,-9.093 -9.091,-14.103c-0.698,-1.379 -1.441,-2.783 -2.652,-3.728c-1.21,-0.955 -3.021,-1.318 -4.294,-0.452c-1.396,0.946 -1.626,2.89 -1.661,4.577c-0.123,5.178 0.274,10.374 -0.248,15.534c-0.512,5.152 -2.04,10.391 -5.487,14.262c-2.721,3.065 -6.812,4.7 -9.666,7.678c-1.219,1.281 -2.501,2.916 -2.289,4.789c0.248,2.236 2.908,3.11 4.754,3.543c2.624,0.618 5.143,1.175 7.697,2.121c5.822,2.164 11.388,5.31 15.622,9.931c3.463,3.774 5.884,8.324 8.844,12.477c1.926,2.703 8.067,11.31 10.983,4.975c0.698,-1.511 0.619,-3.253 0.468,-4.904c-0.671,-7.582 -2.456,-15.252 -0.945,-22.709c1.635,-8.049 6.936,-14.854 12.617,-20.781c0.115,-0.125 0.23,-0.248 0.354,-0.372c0.875,-0.972 1.679,-2.147 1.307,-3.358" style="fill:#030503;fill-rule:nonzero;"/><path d="M129.148,203.703c-3.2,4.117 -6.38,8.464 -7.679,13.607c-1.307,5.187 -2.138,10.523 -2.209,15.878c-4.003,-5.54 -9.251,-10.064 -14.703,-14.12c-3.119,-2.465 -7.051,-3.392 -10.427,-5.39c3.659,-3.065 7.37,-6.344 9.243,-10.859c2.306,-4.047 2.483,-8.739 3.19,-13.218c2.492,2.288 4.356,5.213 7.13,7.201c4.534,3.507 10.091,5.134 15.455,6.901" style="fill:#fcad08;fill-rule:nonzero;"/><path d="M673.026,226.225c-1.007,-4.797 -3.588,-8.977 -5.911,-13.209c4.303,-2.262 8.597,-4.665 12.317,-7.838c1.493,4.374 3.42,8.597 5.611,12.671c-4.029,2.766 -8.147,5.389 -12.017,8.376m14.844,-16.92c-2.306,-3.491 -2.712,-8.094 -5.823,-11.046c-2.42,-0.839 -4.745,0.893 -6.688,2.131c-4.436,3.162 -9.164,5.945 -14.279,7.854c-1.635,0.707 -3.817,1.511 -4.038,3.562c0.936,3.083 3.648,5.124 5.327,7.793c3.156,5.451 3.173,12.14 6.177,17.636c3.826,-1.653 6.892,-4.577 10.498,-6.618c4.868,-3.19 10.143,-5.7 15.073,-8.792c-0.689,-4.798 -4.418,-8.199 -6.247,-12.52" style="fill:#030503;fill-rule:nonzero;"/><path d="M685.043,217.849c-4.03,2.765 -8.147,5.39 -12.017,8.377c-1.007,-4.799 -3.588,-8.978 -5.911,-13.21c4.303,-2.262 8.597,-4.666 12.317,-7.838c1.493,4.375 3.42,8.597 5.611,12.671" style="fill:#fcad08;fill-rule:nonzero;"/><path d="M75.491,257.173c1.549,-0.95 3.958,-0.56 5.853,0.048c9.118,2.927 17.888,6.842 26.544,10.942c1.916,0.909 4.116,2.255 4.124,4.377c0.008,2.561 -2.946,3.635 -5.091,3.603c-4.313,-0.063 -8.2,-2.661 -12.021,-4.327c-5.501,-2.4 -11.004,-4.8 -16.506,-7.2c-2.307,-1.007 -5.664,-3.475 -3.903,-6.43c0.261,-0.439 0.603,-0.77 1,-1.013" style="fill:#030503;fill-rule:nonzero;"/><path d="M424.754,408.299c-3.64,6.131 -10.02,11.345 -17.469,11.15c-6.733,0.601 -13.749,-3.003 -16.788,-9.1c-5.116,-10.303 1.122,-23.16 10.929,-28.064c8.147,-3.755 19.802,-2.262 24.256,6.318c3.207,6.238 1.881,13.59 -0.928,19.696m11.681,-10.515c-0.239,-7.104 -3.128,-14.199 -8.351,-19.024c-6.52,-6.035 -16.31,-8.032 -24.881,-5.708c-3.181,0.857 -6.176,2.271 -8.898,4.117c-4.612,3.12 -8.438,7.467 -11.019,12.433c-2.924,5.637 -4.337,12.088 -3.852,18.423c0.036,0.486 0.08,0.963 0.141,1.44c0.928,7.572 4.48,14.694 10.621,19.307c5.585,4.197 13.104,5.592 19.89,4.135c8.473,-1.82 15.746,-7.679 20.446,-14.96c3.853,-5.973 6.15,-13.05 5.903,-20.163" style="fill:#030503;fill-rule:nonzero;"/><path d="M424.754,408.299c-3.64,6.131 -10.02,11.345 -17.469,11.15c-6.733,0.601 -13.749,-3.003 -16.788,-9.1c-5.116,-10.303 1.122,-23.16 10.929,-28.064c8.147,-3.755 19.802,-2.262 24.256,6.318c3.207,6.238 1.881,13.59 -0.928,19.696" style="fill:#fff;fill-rule:nonzero;"/><path d="M503.676,515.973c-6.583,-0.68 -13.156,-1.484 -19.783,-1.643c4.418,-11.036 8.562,-22.178 12.529,-33.382c0.618,-1.502 0.99,-3.164 2.067,-4.418c1.061,9.816 2.572,19.58 3.694,29.397c0.627,3.331 0.486,6.777 1.493,10.046" style="fill:#030503;fill-rule:nonzero;"/><path d="M256.906,519.897c-6.795,0.68 -13.554,1.669 -20.348,2.333c2.252,-13.167 4.823,-26.296 7.669,-39.356c3.711,12.512 8.483,24.679 12.679,37.023" style="fill:#030503;fill-rule:nonzero;"/><path d="M448.857,650.789l4.048,7.86c-1.377,-2.306 -2.6,-4.714 -3.779,-7.13c-0.11,-0.237 -0.192,-0.48 -0.269,-0.73" style="fill:#030503;fill-rule:nonzero;"/><path d="M462.328,687.091c-1.178,1.301 -2.85,2.178 -4.805,2.287c1.775,-0.27 3.486,-1.076 4.805,-2.287" style="fill:#030503;fill-rule:nonzero;"/><path d="M457.101,689.391l0.333,-0c0.032,-0.006 0.058,-0.006 0.09,-0.013c-0.141,0.007 -0.282,0.013 -0.423,0.013m1.954,-5.708c-32.113,0.039 -64.251,0.019 -96.371,-0.096c-8.769,0.103 -17.545,0.154 -26.315,0.019c-1.461,0.122 -2.965,0.141 -4.311,-0.518c0.968,-2.403 2.312,-4.613 3.716,-6.778c3.619,-6.31 7.578,-12.427 11.05,-18.821c0.615,-0.935 1.115,-2.043 2.062,-2.678c31.544,0.231 63.092,-0.063 94.628,0.155c1.346,1.371 2.062,3.202 3.062,4.824c3.856,6.982 7.988,13.804 11.812,20.806c0.583,0.921 0.795,1.991 0.667,3.087m-109.797,-32.599c-0.032,-0.071 -0.051,-0.141 -0.071,-0.219c-0.019,-0.063 -0.031,-0.133 -0.044,-0.204c-0.013,-0.09 -0.02,-0.193 -0.02,-0.295c0.078,-16.611 -0.018,-33.227 -0.07,-49.838c0.045,-1.78 -0.192,-3.607 0.289,-5.342c1.299,-0.429 2.69,-0.372 4.042,-0.403c17.507,-0.033 35.008,0.006 52.508,-0c12.255,0.096 24.522,-0.2 36.771,0.153c0.339,17.693 0.096,35.393 0.192,53.086c-0,0.935 0.006,1.877 0.012,2.818c0,0.301 0.007,0.596 0.007,0.897l-0,0.691l-7.962,0c-27.604,-0.031 -55.206,-0.006 -82.804,-0.012c-0.133,0.02 -0.274,0.026 -0.416,0.026c-0.089,-0 -0.173,-0.006 -0.263,-0.014c-0.108,-0.006 -0.217,-0.025 -0.319,-0.044c-0.09,-0.013 -0.18,-0.032 -0.263,-0.058c-0.096,-0.025 -0.186,-0.058 -0.276,-0.089c-0.077,-0.026 -0.147,-0.058 -0.218,-0.09c-0.051,-0.02 -0.102,-0.045 -0.153,-0.077c-0.218,-0.115 -0.41,-0.256 -0.577,-0.429c-0.154,-0.16 -0.281,-0.346 -0.365,-0.557" style="fill:#030503;fill-rule:nonzero;"/><path d="M462.347,687.072c-0.006,0.012 -0.012,0.019 -0.018,0.019c-1.32,1.211 -3.031,2.018 -4.805,2.287c-0.141,0.006 -0.282,0.013 -0.423,0.013l-122.781,0c-1.941,-0.294 -4.081,-0.885 -5.631,-2.102c-1.243,-1.242 -2.024,-2.907 -2.153,-4.676c0.058,-2.677 1.704,-5.156 2.973,-7.545l3.92,-6.624l9.923,-16.752c0.147,-18.347 0.115,-36.731 0.077,-55.091c-0.153,-3.382 2.466,-6.898 6.027,-6.886c30.57,-0.012 61.145,0.013 91.721,-0.006c1.767,0.064 3.817,-0.352 5.259,0.967c2.293,1.922 2.158,5.202 2.183,7.924c-0.096,16.636 0.11,33.272 -0.102,49.909c0.02,0.761 0.116,1.537 0.34,2.279c0.077,0.251 0.159,0.495 0.269,0.731c1.179,2.415 2.402,4.823 3.779,7.13l10.506,20.396c1.454,2.819 0.82,5.951 -1.064,8.027" style="fill:#030503;fill-rule:nonzero;"/><path d="M354.348,647.124c0.094,-15.734 0.032,-31.468 -0.031,-47.191c27.968,-0.136 55.936,-0.074 83.904,-0.021c0,15.755 -0.094,31.52 0.011,47.275c-27.968,-0 -55.926,0.136 -83.884,-0.063m88.314,-52.185c-12.245,-0.356 -24.51,-0.063 -36.765,-0.157c-17.511,0.01 -35.01,-0.031 -52.51,-0c-1.358,0.031 -2.748,-0.021 -4.043,0.407c-0.481,1.735 -0.251,3.563 -0.293,5.339c0.053,16.612 0.147,33.223 0.073,49.835c0,0.104 0.011,0.209 0.021,0.303c0.011,0.063 0.021,0.136 0.042,0.198c0.021,0.074 0.042,0.147 0.073,0.22c0.084,0.209 0.209,0.397 0.366,0.554c0.167,0.177 0.355,0.313 0.575,0.428c0.052,0.031 0.104,0.063 0.156,0.083c0.063,0.032 0.136,0.063 0.209,0.084c0.094,0.031 0.188,0.063 0.282,0.094c0.084,0.021 0.167,0.042 0.262,0.052c0.104,0.021 0.208,0.042 0.323,0.053c0.084,-0 0.168,0.01 0.262,0.01c0.135,0 0.282,-0.01 0.417,-0.021c27.404,0 54.808,-0.021 82.223,0.011l6.728,-0c1.003,-0.105 1.787,-0.962 1.787,-1.985l-0,-2.832c-0.094,-17.562 0.156,-35.124 -0.188,-52.676" style="fill:#fcad08;fill-rule:nonzero;"/><path d="M439.241,667.367c-3.843,0.468 -7.718,0.129 -11.575,0.205c-24.618,0.045 -49.236,-0.057 -73.86,0.051c-0.006,-0.787 0.013,-1.563 0.07,-2.332c27.61,-0.133 55.225,-0.037 82.841,-0.057c1.391,-0.224 2.883,0.474 2.524,2.133m-56.288,11.679c0.589,-2.005 1.428,-3.985 1.275,-6.112c7.796,-0.013 15.598,-0.166 23.394,0.108c-0,2.064 0.057,4.139 0.532,6.163c-8.398,-0.071 -16.816,0.276 -25.201,-0.159m54.488,-19.309c0.154,0.43 0.462,1.289 0.616,1.718c-1.89,0.698 -3.928,0.243 -5.888,0.34c-26.02,-0.014 -52.041,-0 -78.062,-0.02c-0.006,-0.512 -0.018,-1.531 -0.026,-2.044c27.783,-0.134 55.578,-0.288 83.36,0.006m20.948,20.858c-3.824,-7.001 -7.956,-13.823 -11.812,-20.806c-1,-1.621 -1.718,-3.452 -3.063,-4.823c-31.536,-0.218 -63.085,0.076 -94.627,-0.155c-0.949,0.635 -1.448,1.743 -2.063,2.678c-3.472,6.393 -7.431,12.511 -11.05,18.821c-1.403,2.165 -2.749,4.375 -3.716,6.778c1.345,0.659 2.851,0.64 4.311,0.518c8.77,0.135 17.546,0.084 26.316,-0.019c32.119,0.115 64.258,0.135 96.37,0.096c0.128,-1.096 -0.083,-2.166 -0.666,-3.088" style="fill:#fcad08;fill-rule:nonzero;"/><path d="M438.229,647.189c-27.962,-0.007 -55.923,0.134 -83.878,-0.064c0.096,-15.733 0.025,-31.466 -0.039,-47.193c27.969,-0.135 55.943,-0.076 83.911,-0.025c0,15.758 -0.096,31.524 0.006,47.282" style="fill:#030503;fill-rule:nonzero;"/><path d="M438.056,661.455c-1.89,0.698 -3.927,0.243 -5.887,0.339c-26.021,-0.012 -52.041,0 -78.062,-0.019c-0.006,-0.513 -0.019,-1.531 -0.025,-2.043c27.782,-0.135 55.577,-0.289 83.359,0.006c0.154,0.429 0.462,1.287 0.615,1.717" style="fill:#030503;fill-rule:nonzero;"/><path d="M439.241,667.367c-3.843,0.468 -7.718,0.129 -11.575,0.205c-24.618,0.045 -49.236,-0.057 -73.86,0.051c-0.006,-0.788 0.013,-1.563 0.07,-2.332c27.61,-0.133 55.225,-0.037 82.841,-0.057c1.391,-0.224 2.883,0.474 2.524,2.133" style="fill:#030503;fill-rule:nonzero;"/><path d="M408.154,679.205c-8.398,-0.07 -16.816,0.276 -25.201,-0.16c0.589,-2.004 1.428,-3.984 1.275,-6.111c7.796,-0.013 15.598,-0.167 23.394,0.109c-0,2.063 0.057,4.137 0.532,6.162" style="fill:#030503;fill-rule:nonzero;"/><path d="M140.413,459.194l-3.463,8.774l-4.507,-2.403l1.944,-3.579l0.716,-1.325l0.23,-0.425l5.08,-1.042Z" style="fill:#030503;fill-rule:nonzero;"/><path d="M386.655,429.442l-47.495,-129.178l-67.521,2.804l-44.572,135.662l59.013,-4.381l4.714,-16.395c0,-0 26.502,-0.622 26.502,-0.622c0,0 4.963,14.407 4.963,14.407l64.396,-2.297Zm-80.216,-106.906l21.191,67.312l-51.793,3.836l20.6,-70.732l-9.466,0.393c0,-0 -30.304,92.235 -30.304,92.235c0,0 13.353,-0.991 13.353,-0.991l4.936,-17.164l57.122,-1.341c-0,0 4.898,14.222 4.898,14.222c0,-0 20.116,-0.718 20.116,-0.718l-32.286,-87.814l-18.367,0.762Z" style="fill:#030503;"/><path d="M471.885,310.936l-16.267,108.222l40.566,2.483l14.332,-108.515l-38.631,-2.19Z" style="fill:none;fill-rule:nonzero;stroke:#030503;stroke-width:20px;"/><path d="M290.076,382.153l11.619,-39.894l12.009,38.144l-23.628,1.75Zm41.907,-71.134l-52.678,2.188l-37.438,113.948l36.183,-2.686l4.825,-16.78l41.812,-0.981l4.93,14.314l42.257,-1.507l-39.891,-108.496Z" style="fill:#fff;fill-rule:nonzero;"/><path d="M471.885,310.936l-16.267,108.222l40.566,2.483l14.332,-108.515l-38.631,-2.19Z" style="fill:#fff;fill-rule:nonzero;"/><path d="M707.633,485.772c-5.339,-3.73 -11.911,-7.031 -19.631,-8.003c-5.37,-0.867 -10.908,0.658 -15.275,4.221c-4.544,3.698 -7.219,9.079 -7.355,14.762l-0.031,1.432l0.355,1.379c1.149,4.524 3.688,8.504 7.157,11.2l0.083,0.073c3.03,2.309 6.112,4.2 9.079,6.018c3.511,2.152 6.823,4.189 9.424,6.561l0.721,0.689c2.852,2.716 5.558,5.276 6.592,7.815l0.282,0.627c1.484,3.05 1.285,7.658 -0.564,13.707c-1.107,2.695 -2.664,5.527 -4.639,8.442c-7.898,9.026 -20.822,13.581 -33.087,11.607l-0.825,-0.094c-7.512,-0.596 -14.961,-3.96 -20.634,-6.854c-1.306,-0.71 -2.497,-1.41 -3.573,-2.1c0.167,-0.397 0.334,-0.783 0.491,-1.18c1.232,-2.926 2.403,-5.705 3.729,-8.223c4.482,3.417 9.56,6.426 15.39,8.306c3.74,1.212 11.482,3.72 19.119,0.021c8.086,-3.667 12.955,-12.432 11.607,-20.947l-0.125,-0.826l-0.272,-0.804c-2.466,-7.512 -8.295,-11.461 -12.558,-14.345c-0.491,-0.334 -0.982,-0.668 -1.463,-1.003l-0.428,-0.282c-8.128,-5.182 -15.797,-10.082 -20.456,-16.914l-0.157,-0.23c-0.804,-1.107 -0.585,-4.764 -0.428,-7.449c0.459,-3.615 2.643,-7.46 5.056,-11.398c3.991,0.031 8.693,-0.387 13.331,-2.947c2.988,-1.494 5.193,-3.51 6.896,-5.234c2.1,-0.073 4.722,-0.282 7.553,-1.348c0.335,-0.115 0.93,-0.271 1.515,-0.418c1.588,-0.397 3.782,-0.94 6.049,-2.11c7.147,1.003 15.682,3.176 23.236,7.7c-2.017,2.695 -4.096,5.454 -6.164,8.149m28.553,-16.298l-0.888,-1.693l-1.431,-1.264c-11.221,-9.925 -26.809,-16.1 -45.071,-17.834l-0.251,-0.031c-2.298,5.244 -7.585,9.037 -13.551,9.037c-1.671,-0 -3.28,-0.313 -4.795,-0.857c-1.912,5.955 -7.574,10.437 -14.041,10.437c-4.921,0 -9.361,-2.559 -12.057,-6.383l-0.157,-0l-3.103,4.889c-0.386,0.627 -0.804,1.233 -1.212,1.839c-0.658,0.972 -1.399,2.069 -2.11,3.26c-3.489,5.683 -7.282,12.422 -8.159,20.456l-0.053,0.763c-0.344,5.788 -0.825,13.707 4.242,20.822c0.888,1.316 1.839,2.57 2.831,3.761l-6.937,8.274c-2.56,3.062 -4.273,6.279 -5.798,9.121c-0.429,0.815 -0.867,1.63 -1.327,2.455c-2.173,3.855 -3.803,7.721 -5.37,11.451c-1.129,2.685 -2.194,5.224 -3.396,7.585l-3.395,6.686l5.245,5.36c3.677,3.761 8.149,7 14.052,10.186l0.219,0.115c7.313,3.73 17.113,8.128 28.177,9.089c2.81,0.429 5.631,0.638 8.452,0.638c16.685,-0 33.192,-7.293 43.796,-19.809l0.617,-0.804c3.155,-4.566 5.547,-8.954 7.323,-13.436l0.241,-0.689c3.636,-11.524 3.531,-21.073 -0.314,-29.191c-1.964,-4.628 -4.941,-8.274 -7.888,-11.304l4.911,-3.437c3.144,-2.205 5.13,-4.973 6.571,-6.99c0.366,-0.501 0.721,-1.013 1.108,-1.494l0.073,-0.083c2.706,-3.479 5.359,-7.021 7.93,-10.448c1.358,-1.818 2.716,-3.625 4.085,-5.433c3.51,-4.179 4.085,-9.998 1.431,-15.044" style="fill:#030503;fill-rule:nonzero;"/><path d="M562.391,523.245l0.074,0.409c2.419,11.854 11.841,21.149 23.452,23.126l0.191,0.032c6.318,0.954 13.033,0.235 19.628,-2.037c0.664,2.073 1.212,3.962 1.402,5.633c-3.25,3.366 -8.602,4.791 -11.788,5.367l-0.338,0.066c-9.02,1.936 -19.296,-0.558 -28.233,-6.839c-6.484,-5.072 -11.251,-11.761 -13.415,-18.786c-5.843,-19.451 0.356,-42.22 15.431,-56.722c7.441,-6.573 16.226,-10.272 24.756,-10.42l0.774,-0.013l0.765,-0.128c2.915,-0.486 6.077,-0.447 9.413,-0.225c1.834,4.106 4.495,8.284 8.648,11.605c1.176,1.031 2.389,1.883 3.605,2.602c-0.269,0.397 -0.541,0.793 -0.818,1.19c-0.154,-0.086 -0.309,-0.17 -0.466,-0.253l-0.127,-0.067c-9.88,-5.048 -18.933,-6.086 -26.913,-3.089c-9.14,3.052 -16.893,10.442 -22.435,21.388l-0.249,0.531c-3.669,8.382 -4.829,17.591 -3.357,26.63m32.751,-28.76l0.579,-0.206c2.17,-0.848 5.728,-0.113 10.023,2.066c0.39,0.223 1.219,0.955 1.89,1.545c1.336,1.181 3,2.652 5.171,3.921l8.05,4.715l6.832,-9.118c4.932,-6.56 10.033,-13.343 13.517,-21.654l4.036,-9.631l-7.42,-3.115c-1.094,0.27 -2.225,0.43 -3.386,0.43c-6.127,0 -11.51,-3.966 -13.7,-9.413c-3.337,-2.724 -5.512,-6.846 -5.522,-11.376l-3.821,-0.339c-5.755,-0.521 -12.25,-1.109 -18.967,-0.108c-13.323,0.428 -26.667,6.022 -37.659,15.806l-0.272,0.25c-20.711,19.789 -29.207,51.122 -21.119,78.037c3.458,11.233 10.839,21.66 20.782,29.361l0.349,0.259c10.552,7.491 22.647,11.456 34.39,11.455c3.492,0 6.952,-0.35 10.331,-1.062c12.501,-2.292 21.909,-8.143 27.218,-16.929l1.123,-1.858l0.288,-2.153c0.972,-7.234 -1.104,-13.574 -2.774,-18.668c-0.285,-0.869 -0.569,-1.736 -0.835,-2.603l-0.226,-0.658c-0.156,-0.41 -0.299,-0.827 -0.443,-1.245c-0.796,-2.308 -1.888,-5.467 -4.431,-8.429l-5.899,-6.873l-7.64,4.866c-5.581,3.554 -11.354,5.117 -16.265,4.41c-2.938,-0.545 -5.635,-3.31 -6.364,-6.512c-0.741,-4.824 -0.104,-9.919 1.8,-14.405c2.125,-4.124 5.611,-9.231 10.364,-10.766" style="fill:#030503;fill-rule:nonzero;"/><rect x="603.11" y="537.129" width="0.001" height="0.001" style="fill:#030503;"/><path d="M686.491,487.168c-5.338,-0.971 -10.562,3.553 -10.677,8.881c0.304,1.211 0.819,2.392 1.526,3.442c2.709,-4.59 5.88,-8.779 9.325,-12.296c-0.059,-0.008 -0.115,-0.019 -0.174,-0.027" style="fill:#030503;fill-rule:nonzero;"/><path d="M538.602,193.815c-0.011,1.483 -0.157,2.977 -0.335,4.346c-0.376,10.092 -2.601,20.226 -7.438,29.159c-2.936,5.099 -7.126,9.612 -12.349,12.391c-2.477,1.201 -5.151,1.943 -7.638,3.134c-0.261,0.115 -0.522,0.24 -0.773,0.376c10.657,-18.283 17.552,-38.76 20.206,-59.77c0.637,-2.612 3.134,-0.502 4.336,0.491c3.207,2.236 4.022,6.039 3.991,9.8l-0,0.073Zm-87.53,90.747c-9.978,4.326 -20.655,6.927 -31.437,8.212c-9.403,0.136 -18.9,1.034 -28.24,-0.501c-14.898,-1.724 -29.336,-7.011 -42.124,-14.794c-11.806,-6.885 -22.358,-16.11 -30.173,-27.373c-12.338,-16.538 -19.338,-36.953 -19.777,-57.576l-0,-0.042c-0.011,-0.355 -0.011,-0.721 -0.011,-1.087c-0.02,-1.462 0,-2.925 0.053,-4.388c0.773,-0.512 1.567,-0.971 2.392,-1.389c15.024,-10.981 23.319,-29.358 25.398,-47.505c0.355,-1.881 0.533,-3.772 0.544,-5.663l-0,-0.062c-0,-0.157 -0,-0.314 -0.011,-0.471c-0.052,-6.488 -2.027,-12.955 -5.057,-18.669c-0.094,-0.188 -0.188,-0.377 -0.292,-0.554c3.124,-4.482 7.585,-7.888 10.97,-12.192c11.315,-10.5 24.071,-19.872 38.53,-25.513c9.32,-4.002 19.203,-6.676 29.306,-7.752c18.074,-2.644 36.932,-0.972 54.306,4.879c3.594,1.368 7.188,2.737 10.657,4.419c1.18,0.595 2.382,1.17 3.594,1.734c16.57,8.379 31.092,21.25 40.317,37.465c8.17,14.313 11.879,30.82 12.631,47.181c0.011,0.314 0.011,0.627 0.011,0.941c0.01,0.606 0.02,1.222 0.02,1.828l0,0.01c0,0.669 0,1.338 -0.01,2.017c-0.303,20.78 -5.172,41.424 -14.073,60.209c-11.649,24.813 -31.76,46.419 -57.524,56.636m-150.362,-6.247c-7.825,-5.527 -15.211,-12.005 -21.104,-19.61c10.208,-1.818 20.425,-3.532 30.633,-5.329c4.795,6.729 9.893,13.321 16.11,18.796c1.076,0.95 2.047,2.016 2.967,3.123c-9.445,1.536 -19.067,2.341 -28.606,3.02m20.018,23.308c-2.236,0.167 -4.482,0.335 -6.728,0.502c-1.588,0.125 -2.915,-0.105 -3.667,-1.703c-0.491,-1.055 -0.544,-2.257 -0.7,-3.406c-0.335,-2.351 -1.181,-4.628 -2.476,-6.624c-0.638,-1.013 -1.871,-3.228 0.073,-3.698c0.459,-0.105 0.95,-0.053 1.421,-0.011c1.744,0.136 3.5,0 5.202,-0.428c1.933,-0.491 3.385,-0.846 4.775,0.794c1.034,1.222 2.048,2.445 2.978,3.751c2.016,2.831 3.426,5.965 3.573,9.486c0.062,1.713 -3.26,1.233 -4.451,1.337m-64.932,-18.701c-1.159,-0.47 -2.016,-1.975 -2.82,-2.936c-0.962,-1.159 -1.933,-2.33 -2.884,-3.5c-3.834,-4.701 -7.564,-9.486 -11.189,-14.334c-0.251,-0.344 -0.512,-0.679 -0.763,-1.024c4.378,-1.953 8.483,-4.502 12.192,-7.532c2.758,-2.257 5.308,-4.785 7.564,-7.543c4.775,5.683 9.549,11.367 14.313,17.04c0.7,0.825 1.4,1.661 2.247,2.34c0.344,0.271 0.731,0.533 0.93,0.93c0.397,0.794 -0.084,1.734 -0.554,2.486c-3.124,4.9 -6.634,9.8 -11.66,12.715c-2.047,1.191 -5.014,2.33 -7.376,1.358m-22.42,-28.25c-1.296,-2.111 -2.56,-4.231 -3.803,-6.363c-2.445,-4.179 -4.827,-8.41 -7.125,-12.673c-0.126,-0.261 -0.272,-0.512 -0.293,-0.804c-0.052,-0.773 0.742,-1.306 1.432,-1.672c6.299,-3.416 12.14,-7.668 17.332,-12.62c0.209,0.355 0.428,0.71 0.648,1.076c3.688,5.892 7.679,11.586 11.952,17.061c0.773,0.982 1.598,2.131 1.368,3.364c-0.125,0.606 -0.491,1.139 -0.856,1.63c-4.138,5.537 -9.831,9.883 -16.267,12.411c-2.267,0.878 -3.197,0.544 -4.388,-1.41m-14.376,-26.547c-1.316,-2.55 -2.581,-5.109 -3.834,-7.679c-2.497,-5.151 -4.869,-10.364 -7.105,-15.63c0.042,-0.01 0.074,-0.021 0.115,-0.031c6.99,-2.017 12.882,-6.676 18.493,-11.336c3.562,7.188 7.396,14.23 11.523,21.115c0.167,0.282 0.345,0.585 0.314,0.919c-0.032,0.355 -0.293,0.648 -0.544,0.909c-3.855,4.043 -8.023,7.857 -12.787,10.771c-1.056,0.638 -2.153,1.244 -3.323,1.63c-1.421,0.46 -2.142,0.7 -2.852,-0.668m-18.597,-32.889c-0.292,0.021 -0.585,0.031 -0.888,0.041c-2.821,0.115 -6.383,0.063 -8.692,-1.326c-2.716,-1.641 -5.224,-3.615 -6.833,-6.394c-0.449,-0.784 -0.836,-1.641 -0.94,-2.529c-0.042,-0.219 -0.052,-0.438 -0.042,-0.668c0.178,-5.621 10.5,-5.203 12.589,-10.019c0.136,-0.314 0.23,-0.648 0.293,-1.014c-16.131,4.837 -34.864,-0.585 -45.917,-13.3c-5.098,-5.871 -8.546,-12.976 -11.565,-20.143c-1.526,-3.614 -2.999,-7.344 -5.579,-10.301c-2.905,-3.322 -6.938,-5.391 -10.866,-7.397c-10.468,-5.37 -21.386,-11.44 -27.153,-21.689c-1.505,-2.674 -2.518,-5.882 -2.675,-8.985c-0.177,-3.583 0.794,-7.031 3.448,-9.403c3.082,-2.737 7.7,-3.207 11.691,-2.194c4.001,1.024 7.532,3.333 10.938,5.673c8.776,6.039 17.239,12.517 25.357,19.402c0.7,0.606 1.431,1.253 1.713,2.131c0.115,0.407 0.125,0.825 0.073,1.243c-0.063,0.596 -0.261,1.191 -0.449,1.755c-1.003,2.894 -2.006,5.799 -3.009,8.693c0.178,-0.199 0.366,-0.387 0.543,-0.585c1.463,-1.557 2.915,-3.124 4.378,-4.681c4.273,-4.576 8.567,-9.183 13.467,-13.08c10.865,-8.661 24.625,-13.624 38.499,-13.906c0.198,-0.01 0.407,-0.01 0.606,-0.01c-2.037,-3.49 -6.227,-5.569 -10.228,-5.099c-0.105,-1.598 -0.178,-3.197 -0.23,-4.795c-0.011,-0.533 -0.021,-1.066 -0.031,-1.599c-0.011,-0.47 -0.021,-0.94 -0.011,-1.421c-0.073,-9.256 0.836,-18.513 2.706,-27.592c0.909,-4.367 2.152,-8.932 5.328,-12.067c5.464,-5.411 16.027,-3.896 19.736,2.853c1.598,2.873 1.974,6.205 1.985,9.517c0.01,0.22 0.01,0.429 0.01,0.648c0,0.282 0,0.554 -0.01,0.836c-0.314,15.629 -5.172,31.217 -4.973,46.68l-0,0.543c0.062,3.04 0.324,6.08 0.867,9.121c-0.042,0.01 -0.084,0.021 -0.125,0.031c-7.659,1.912 -15.139,5.276 -20.728,10.845c-5.141,5.108 -8.515,12.265 -8.254,19.463c0.031,0.679 0.084,1.359 0.178,2.038c2.204,-0.993 3.092,-3.605 4.001,-5.851c5.046,-12.443 18.659,-20.843 32.043,-19.777c2.841,-10.49 9.528,-19.882 18.513,-25.983c3.291,-2.236 6.979,-4.075 10.949,-4.451c3.959,-0.376 8.233,0.93 10.729,4.033c1.62,2.027 2.257,4.461 2.184,6.989c-0.104,3.97 -1.964,8.149 -4.586,11.252c-4.294,5.088 -10.218,8.567 -14.554,13.624c-5.683,6.645 -8.128,15.379 -12.077,23.183c-5.339,10.5 -13.436,19.307 -21.428,27.947c0.522,-0.25 1.045,-0.491 1.577,-0.742c2.978,-1.41 5.966,-2.82 8.954,-4.231c0.71,-0.334 1.473,-0.679 2.257,-0.574c0.992,0.125 1.744,0.929 2.288,1.755c1.42,2.131 1.974,4.607 1.891,7.146c-0.094,3.385 -1.306,6.885 -3.082,9.821c-3.427,5.694 -8.902,10.008 -15.087,12.411c-3.113,1.212 -6.425,1.944 -9.779,2.132m-68.369,-130.02c-2.162,-4.733 -3.865,-9.633 -4.001,-14.815c0,-0.021 -0.01,-0.052 0,-0.073l0,-0.063c-0.021,-0.125 -0.021,-0.251 -0.021,-0.386c-0.042,-4.67 1.651,-9.591 5.433,-12.308c3.928,-2.831 9.434,-2.758 13.832,-0.741c4.399,2.006 7.836,5.673 10.605,9.632c3.907,5.548 6.738,11.785 9.35,18.033c2.769,6.624 5.329,13.32 7.669,20.101c-0.042,-0.021 -0.146,-0.011 -0.303,0.052c-1.975,0.711 -12.464,6.906 -13.436,7.596c-2.173,1.567 -4.262,3.249 -6.247,5.046c-0.512,0.47 -2.111,2.549 -2.758,2.559c-0.732,0.032 -2.121,-2.622 -2.539,-3.207c-4.848,-6.906 -9.09,-14.48 -12.934,-22.086c-1.536,-3.051 -3.197,-6.154 -4.65,-9.34m152.169,152.137c3.302,-0.669 6.655,-1.201 9.831,-2.34c2.226,10.061 6.206,19.568 10.699,28.793c-10.96,1.317 -21.804,3.417 -32.659,5.339c-6.436,-7.992 -12.318,-16.434 -17.918,-25.011c9.978,-2.403 19.944,-4.921 30.047,-6.781m0.439,-36.984c-4.106,-4.023 -4.795,-10.04 -5.203,-15.494c-0.01,-0.063 -0.021,-0.136 -0.021,-0.198c-0.041,-9.341 2.153,-18.66 6.049,-27.154c3.615,-7.438 8.39,-14.731 15.682,-19.004c3.918,-2.298 8.609,-3.165 13.091,-2.413c6.551,3.207 6.906,11.283 7.052,17.635c0,0.052 0,0.094 -0.01,0.147c-0.679,12.61 -4.597,25.178 -11.806,35.615c-3.96,5.37 -8.88,10.751 -15.462,12.746c-3.166,0.314 -6.948,0.596 -9.372,-1.88m175.216,-138.148c0.502,-1.547 2.1,-0.46 3.197,-0.408c-0.073,0.303 -0.136,0.606 -0.188,0.909c-1.483,7.073 -1.201,14.386 -2.716,21.438c-2.863,-0.982 -5.642,-2.183 -8.567,-2.967c-0.136,-0.041 -0.282,-0.083 -0.418,-0.115c3.019,-6.216 5.819,-12.558 8.692,-18.857m0.042,-27.216c2.393,-1.432 5.161,-2.257 7.94,-2.414c3.918,-0.177 8.045,0.93 10.855,3.793c2.111,1.744 3.448,4.482 3.333,7.198c-0.031,0.836 -0.209,1.672 -0.533,2.476c-3.03,10.594 -20.299,11.994 -25.189,2.236c-0.7,-1.201 -1.076,-2.549 -1.16,-3.918c-0.271,-3.667 1.526,-7.512 4.754,-9.371m-10.468,291.288c3.991,0.847 7.887,2.069 11.732,3.406c0.23,0.073 0.47,0.178 0.617,0.376c0.188,0.261 0.104,0.627 0.031,0.951c-1.118,4.555 -1.724,9.246 -1.776,13.937c-0,0.251 -0.021,0.522 -0.23,0.669c-0.146,0.104 -0.355,0.073 -0.543,0.041c-0.972,-0.198 -1.881,-0.647 -2.852,-0.856c-1.568,-0.345 -3.177,-0.052 -4.754,-0.136c-0.575,-0.031 -1.797,-0.042 -2.225,-0.491c-0.471,-0.491 -0.397,-1.734 -0.439,-2.351c-0.376,-6.153 -2.017,-12.213 -4.764,-17.708c1.316,1.379 3.343,1.765 5.203,2.162m93.317,-82.765c-0.01,-0.439 -0.062,-1.327 -0.083,-1.756c0.741,-1.222 1.358,-2.507 1.734,-3.886c3.333,-10.124 4.419,-21.167 2.1,-31.614c-1.317,-6.478 -7.188,-11.043 -13.436,-12.339c-0.574,-4.273 -0.125,-8.567 -0.376,-12.85c-0.543,-7.46 -1.389,-14.909 -3.291,-22.17c-5.913,-27.467 -24.311,-51.517 -48.445,-65.653c-3.939,-2.643 -8.525,-4.262 -12.286,-7.135c-0.554,-7.711 1.149,-15.536 2.664,-23.11c2.904,-1.16 6.028,-1.766 8.713,-3.406c6.833,-4.357 11.168,-13.196 8.724,-21.188c-0.721,-3.385 -3.197,-5.966 -5.423,-8.452c-8.661,-6.76 -22.138,-6.718 -30.402,0.71c-4.775,4.942 -7.627,12.767 -4.44,19.307c0.982,3.03 3.865,5.193 4.628,8.212c-2.633,7.24 -5.569,14.407 -8.891,21.376c-33.181,-8.066 -69.246,-0.679 -97.674,17.876c-12.088,8.4 -22.985,18.67 -31.51,30.695c-8.64,-1.432 -17.28,2.173 -23.382,8.191c-11.21,10.834 -17.092,26.056 -19.432,41.236c-0.752,8.567 -0.429,17.897 4.649,25.231c3.166,4.325 8.379,6.676 13.55,7.386c0.314,4.169 0.46,8.359 1.014,12.506c-0.052,1.463 0.669,3.155 -0.199,4.472c-2.288,1.045 -4.91,0.7 -7.302,1.327c-9.361,2.016 -18.796,3.719 -28.042,6.226c-2.267,0.429 -4.565,1.296 -6.906,1.014c-2.277,-3.061 -3.698,-6.687 -5.944,-9.779c-4.315,-6.394 -6.854,-13.854 -11.534,-19.997c1.379,-2.956 3.28,-5.715 3.97,-8.964c1.097,-6.833 0.95,-15.013 -4.66,-19.955c2.664,-3.573 5.422,-7.104 7.501,-11.064c3.459,-5.694 5.13,-12.234 8.359,-18.053c2.622,-6.07 8.107,-10.082 12.756,-14.501c3.887,-3.542 7.574,-7.397 10.124,-12.036c3.562,-6.53 3.228,-15.117 -1.338,-21.083c-4.022,-5.704 -11.377,-8.567 -18.231,-7.7c-7.083,0.543 -13.581,4.169 -18.816,8.797c-3.855,3.761 -8.002,7.47 -10.186,12.506c1.254,-16.278 5.579,-32.21 5.861,-48.561c-0.449,-6.749 -2.748,-13.853 -8.128,-18.262c-5.746,-4.9 -14.209,-5.725 -21.136,-3.103c-2.779,1.076 -5.683,2.476 -7.355,5.067c-3.05,4.346 -5.443,9.278 -6.394,14.543c-2.173,10.803 -1.995,21.877 -3.291,32.795c-3.698,-10.886 -8.19,-21.564 -13.853,-31.593c-5.004,-7.899 -12.182,-15.369 -21.689,-17.291c-5.558,-1.713 -11.827,-0.24 -16.204,3.542c-6.029,4.565 -8.808,12.317 -8.724,19.704c-0.47,5.997 2.549,11.398 4.189,16.998c2.863,6.154 5.245,12.589 8.797,18.398c-2.695,-2.016 -5.725,-3.583 -8.17,-5.945c-6.655,-4.586 -13.979,-9.684 -22.441,-9.225c-7.136,0.46 -14.104,4.723 -16.925,11.451c-2.675,5.13 -1.494,11.064 -0.272,16.434c1.526,5.192 4.837,9.653 8.233,13.78c7.439,7.481 16.841,12.475 26.192,17.124c2.789,1.473 5.945,2.894 7.407,5.892c3.176,5.819 5.12,12.224 8.557,17.918c7.773,15.002 22.567,26.369 39.398,28.971c1.253,4.691 2.006,9.8 5.526,13.467c3.939,5.255 10.626,6.718 16.654,8.023c3.468,4.65 5.265,10.239 7.626,15.463c1.651,3.771 17.981,33.735 22.202,41.414c-1.4,0.575 -2.811,1.16 -4.221,1.745c0.742,3.176 1.222,6.435 1.441,9.747c2.738,-0.762 5.59,-1.118 8.463,-0.961c10.907,11.409 21.825,22.818 32.732,34.237c0.773,0.794 4.913,5.701 5.54,6.61c0.365,-0.146 -0.066,-2.722 0.299,-2.868c2.059,-0.794 1.537,-3.126 3.7,-3.585c7.533,-1.63 15.337,-2.957 23.068,-2.759c6.321,0.157 13.812,1.191 19.945,2.571c1.577,0.355 3.061,0.814 4.586,1.347c6.791,2.361 13.3,5.276 19.516,8.672c-0.042,-0.105 -0.084,-0.209 -0.136,-0.303c-0.888,-1.943 -1.859,-3.845 -2.998,-5.652c-0.209,-0.345 -0.429,-0.69 -0.648,-1.024c-0.021,-0.011 -0.031,-0.032 -0.042,-0.052c-1.327,-1.965 -2.852,-3.824 -3.897,-5.945c-1.441,-2.915 -1.922,-6.185 -2.789,-9.319c-0.867,-3.135 -2.288,-6.311 -4.984,-8.118c1.912,-1.128 4.075,-1.818 6.29,-2.017c0.606,-0.062 1.233,-0.083 1.828,0.074c0.805,0.219 1.494,0.741 2.152,1.232c25.116,18.639 58.528,25.628 89.003,18.587c1.557,-0.366 3.187,-0.753 4.733,-0.314c1.107,0.314 2.058,1.045 2.883,1.86c4.723,4.576 6.081,11.524 7.209,18.011c-0.094,-0.532 -12.495,-0.783 -13.728,-0.846c-4.67,-0.261 -9.351,-0.459 -14.021,-0.627c-9.35,-0.334 -18.711,-0.501 -28.062,-0.512c-9.361,0 -18.722,0.157 -28.072,0.481c-1.714,0.063 -3.448,0.125 -5.172,0.199c3.761,2.465 7.397,5.098 10.907,7.908c31.97,-0.982 64.013,0.324 95.794,3.908c-3.73,23.235 -7.094,46.533 -10.103,69.873c2.926,0.303 5.778,0.825 8.578,1.536c3.604,-24.918 7.24,-49.825 11.179,-74.679c1.201,-6.645 1.379,-13.593 3.834,-19.924c3.155,-0.47 6.3,0.178 9.465,0.334c1.588,0.094 3.176,0.126 4.754,0.136c-0.178,-0.062 -0.345,-0.136 -0.522,-0.198c-0.585,-0.188 -3.594,-0.763 -1.745,-0.638c-5.704,-0.397 -10.782,-3.458 -13.216,-8.264c-1.641,0.335 -3.249,0.868 -4.785,1.714c-6.927,-2.999 -14.481,-4.033 -21.637,-6.258c5.871,-1.546 11.127,-4.691 16.706,-6.99c9.465,-5.077 18.534,-11.022 26.515,-18.241c4.075,-2.79 6.812,-7.084 10.72,-10.009c0.418,0.073 0.825,0.157 1.232,0.23c0.575,-1.076 1.275,-2.069 2.08,-2.978c1.943,-5.902 7.574,-10.322 14.01,-10.322c0.773,0 1.525,0.073 2.267,0.199c0.836,-0.23 1.609,-0.46 2.173,-0.721c2.142,-1.003 4.2,-2.205 6.154,-3.563c3.729,-2.601 7.031,-5.819 9.705,-9.507c0.669,-0.94 1.348,-1.933 2.393,-2.434c0.146,-0.084 0.303,-0.136 0.48,-0.188c1.129,-0.356 2.403,-0.126 3.594,0.125c1.056,0.219 2.1,0.46 3.156,0.69c1.682,-2.811 3.531,-5.454 5.516,-7.878c-2.696,-0.637 -5.412,-1.222 -8.139,-1.713" style="fill:#030503;fill-rule:nonzero;"/><path d="M276.612,304.733c-0.149,0 -0.284,-0.015 -0.416,-0.049c-0.465,-0.152 -0.681,-0.383 -0.872,-0.586c-1.02,-1.013 -2.005,-1.999 -2.98,-2.984l-11.749,-11.749c-0.033,-0.033 -0.189,-0.216 -0.199,-0.227l-4.807,0l4.809,-2.009c3.39,-1.416 6.669,-3.838 10.027,-7.409c2.031,-2.161 3.92,-4.544 5.746,-6.848c0.825,-1.039 1.65,-2.081 2.492,-3.108l0.782,-0.955l0.813,0.93c3.351,3.84 7.138,7.429 11.256,10.669c2.069,1.63 4.339,3.256 6.924,4.113l0.142,0.047c0.459,0.149 1.029,0.335 1.499,0.791c0.433,0.4 0.653,0.915 0.83,1.329c2.075,4.951 4.207,10.039 4.708,15.551l0.103,1.144l-2.174,-0.007c-5.173,0 -10.366,0.152 -15.436,0.449c-2.529,0.146 -5.215,0.342 -8.214,0.604l-2.387,0.233c-0.229,0.024 -0.457,0.047 -0.689,0.062c-0.062,0.006 -0.138,0.009 -0.208,0.009" style="fill:#686d69;fill-rule:nonzero;"/><path d="M279.42,267.192l-1.566,1.911c-0.843,1.03 -1.671,2.073 -2.498,3.117c-1.814,2.288 -3.689,4.654 -5.693,6.784c-3.254,3.461 -6.417,5.803 -9.668,7.162l-9.617,4.018l9.557,-0l11.674,11.674c0.961,0.97 1.939,1.948 2.917,2.917l0.035,0.036c0.22,0.235 0.59,0.629 1.229,0.842l0.077,0.025l0.077,0.02c0.214,0.054 0.434,0.08 0.669,0.08c0.095,-0 0.199,-0.005 0.315,-0.014c0.205,-0.012 0.449,-0.038 0.695,-0.064l0.319,-0.032c0.344,-0.031 0.692,-0.066 1.04,-0.1c0.337,-0.034 0.673,-0.067 1.012,-0.099c2.974,-0.26 5.65,-0.456 8.173,-0.6c5.053,-0.297 10.226,-0.447 15.377,-0.447l1.024,0.002l2.297,0.008l-0.208,-2.287c-0.515,-5.675 -2.776,-11.07 -4.772,-15.831c-0.21,-0.491 -0.501,-1.17 -1.111,-1.737c-0.611,-0.593 -1.368,-0.838 -1.868,-1.001l-0.136,-0.045c-2.435,-0.809 -4.615,-2.373 -6.608,-3.943c-4.068,-3.2 -7.809,-6.745 -11.117,-10.536l-1.625,-1.86Zm0.05,3.235c3.448,3.949 7.282,7.564 11.398,10.803c2.215,1.745 4.566,3.396 7.241,4.284c0.438,0.146 0.909,0.271 1.243,0.595c0.292,0.272 0.449,0.648 0.606,1.014c2.058,4.91 4.137,9.914 4.618,15.211c-0.343,-0.002 -0.688,-0.002 -1.032,-0.002c-5.163,0 -10.333,0.147 -15.496,0.451c-2.748,0.157 -5.496,0.366 -8.244,0.606c-0.689,0.063 -1.368,0.136 -2.058,0.199c-0.334,0.031 -0.658,0.073 -0.992,0.094c-0.051,0.004 -0.098,0.006 -0.141,0.006c-0.06,0 -0.113,-0.005 -0.162,-0.017c-0.157,-0.052 -0.241,-0.156 -0.429,-0.355c-0.982,-0.971 -1.964,-1.953 -2.935,-2.936l-11.754,-11.753c-0.083,-0.084 -0.418,-0.533 -0.533,-0.533c4.002,-1.671 7.418,-4.503 10.385,-7.658c2.967,-3.155 5.537,-6.655 8.285,-10.009" style="fill-rule:nonzero;"/><path d="M174.901,84.596c-0.042,-0.021 -0.146,-0.011 -0.303,0.052c-1.975,0.711 -12.464,6.906 -13.436,7.596c-2.173,1.567 -4.262,3.249 -6.247,5.046c-0.512,0.47 -2.111,2.549 -2.758,2.559c-0.732,0.032 -2.121,-2.622 -2.539,-3.207c-4.848,-6.906 -9.09,-14.48 -12.934,-22.086c-1.536,-3.051 -3.197,-6.154 -4.65,-9.34c-2.162,-4.733 -3.865,-9.633 -4.001,-14.815c0,-0.021 -0.01,-0.052 0,-0.073l0,-0.063c-0.021,-0.125 -0.021,-0.251 -0.021,-0.386c-0.042,-4.67 1.651,-9.591 5.433,-12.308c3.928,-2.831 9.434,-2.758 13.832,-0.741c4.399,2.006 7.836,5.673 10.605,9.632c3.907,5.548 6.738,11.785 9.35,18.033c2.769,6.624 5.329,13.32 7.669,20.101" style="fill:#54a4bb;fill-rule:nonzero;"/><path d="M264.029,91.512c-0.104,3.97 -1.964,8.149 -4.586,11.252c-4.294,5.088 -10.218,8.567 -14.554,13.624c-5.683,6.645 -8.128,15.379 -12.077,23.183c-5.339,10.5 -13.436,19.307 -21.428,27.947c0.522,-0.25 1.045,-0.491 1.577,-0.742c2.978,-1.41 5.966,-2.82 8.954,-4.231c0.71,-0.334 1.473,-0.679 2.257,-0.574c0.992,0.125 1.744,0.929 2.288,1.755c1.42,2.131 1.974,4.607 1.891,7.146c-0.094,3.385 -1.306,6.885 -3.082,9.821c-3.427,5.694 -8.902,10.008 -15.087,12.411c-3.113,1.212 -6.425,1.944 -9.779,2.132c-0.292,0.021 -0.585,0.031 -0.888,0.041c-2.821,0.115 -6.383,0.063 -8.692,-1.326c-2.716,-1.641 -5.224,-3.615 -6.833,-6.394c-0.449,-0.784 -0.836,-1.641 -0.94,-2.529c-0.042,-0.219 -0.052,-0.438 -0.042,-0.668c0.178,-5.621 10.5,-5.203 12.589,-10.019c0.136,-0.314 0.23,-0.648 0.293,-1.014c-16.131,4.837 -34.864,-0.585 -45.917,-13.3c-5.098,-5.871 -8.546,-12.976 -11.565,-20.143c-1.526,-3.614 -2.999,-7.344 -5.579,-10.301c-2.905,-3.322 -6.938,-5.391 -10.866,-7.397c-10.468,-5.37 -21.386,-11.44 -27.153,-21.689c-1.505,-2.674 -2.518,-5.882 -2.675,-8.985c-0.177,-3.583 0.794,-7.031 3.448,-9.403c3.082,-2.737 7.7,-3.207 11.691,-2.194c4.001,1.024 7.532,3.333 10.938,5.673c8.776,6.039 17.239,12.517 25.357,19.402c0.7,0.606 1.431,1.253 1.713,2.131c0.115,0.407 0.125,0.825 0.073,1.243c-0.063,0.596 -0.261,1.191 -0.449,1.755c-1.003,2.894 -2.006,5.799 -3.009,8.693c0.178,-0.199 0.366,-0.387 0.543,-0.585c1.463,-1.557 2.915,-3.124 4.378,-4.681c4.273,-4.576 8.567,-9.183 13.467,-13.08c10.865,-8.661 24.625,-13.624 38.499,-13.906c0.198,-0.01 0.407,-0.01 0.606,-0.01c-2.037,-3.49 -6.227,-5.569 -10.228,-5.099c-0.105,-1.598 -0.178,-3.197 -0.23,-4.795c-0.011,-0.533 -0.021,-1.066 -0.031,-1.599c-0.011,-0.47 -0.021,-0.94 -0.011,-1.421c-0.073,-9.256 0.836,-18.513 2.706,-27.592c0.909,-4.367 2.152,-8.932 5.328,-12.067c5.464,-5.411 16.027,-3.896 19.736,2.853c1.598,2.873 1.974,6.205 1.985,9.517c0.01,0.22 0.01,0.429 0.01,0.648c0,0.282 0,0.554 -0.01,0.836c-0.314,15.629 -5.172,31.217 -4.973,46.68l-0,0.543c0.062,3.04 0.324,6.08 0.867,9.121c-0.042,0.01 -0.084,0.021 -0.125,0.031c-7.659,1.912 -15.139,5.276 -20.728,10.845c-5.141,5.108 -8.515,12.265 -8.254,19.463c0.031,0.679 0.084,1.359 0.178,2.038c2.204,-0.993 3.092,-3.605 4.001,-5.851c5.046,-12.443 18.659,-20.843 32.043,-19.777c2.841,-10.49 9.528,-19.882 18.513,-25.983c3.291,-2.236 6.979,-4.075 10.949,-4.451c3.959,-0.376 8.233,0.93 10.729,4.033c1.62,2.027 2.257,4.461 2.184,6.989" style="fill:#54a4bb;fill-rule:nonzero;"/><path d="M538.602,193.742c-0.115,-3.448 -1.035,-6.812 -3.971,-8.86c-1.201,-0.992 -3.708,-3.103 -4.346,-0.491c-2.591,20.509 -9.225,40.495 -19.443,58.454c-0.261,0.115 -0.522,0.24 -0.773,0.376c10.657,-18.283 17.552,-38.76 20.206,-59.77c0.637,-2.612 3.134,-0.502 4.336,0.491c3.207,2.236 4.022,6.039 3.991,9.8" style="fill:#030503;fill-rule:nonzero;"/><path d="M463.055,41.813c-0.073,0.303 -0.136,0.606 -0.188,0.909c-1.076,-0.146 -2.528,-1.013 -2.998,0.439c-2.748,6.018 -5.423,12.077 -8.285,18.032c-0.136,-0.041 -0.282,-0.083 -0.418,-0.115c3.019,-6.216 5.819,-12.558 8.692,-18.857c0.502,-1.547 2.1,-0.46 3.197,-0.408" style="fill:#030503;fill-rule:nonzero;"/><path d="M482.028,23.582c-0.188,-2.392 -1.452,-4.712 -3.322,-6.268c-2.811,-2.863 -6.938,-3.96 -10.855,-3.782c-2.779,0.156 -5.548,0.971 -7.941,2.403c-2.946,1.713 -4.691,5.077 -4.764,8.441c-0.271,-3.667 1.526,-7.512 4.754,-9.371c2.393,-1.432 5.161,-2.257 7.94,-2.414c3.918,-0.177 8.045,0.93 10.855,3.793c2.111,1.744 3.448,4.482 3.333,7.198" style="fill:#030503;fill-rule:nonzero;"/><path d="M321.292,133.741c0,0.052 0,0.094 -0.01,0.147c-0.167,-6.217 -0.742,-13.76 -7.032,-16.842c-4.482,-0.752 -9.172,0.115 -13.08,2.413c-7.303,4.273 -12.077,11.566 -15.692,19.005c-3.803,8.264 -5.976,17.301 -6.039,26.411c-0.01,-0.063 -0.021,-0.136 -0.021,-0.198c-0.041,-9.341 2.153,-18.66 6.049,-27.154c3.615,-7.438 8.39,-14.731 15.682,-19.004c3.918,-2.298 8.609,-3.165 13.091,-2.413c6.551,3.207 6.906,11.283 7.052,17.635" style="fill:#030503;fill-rule:nonzero;"/><path d="M683.781,449.289c-1.609,2.978 -4.796,5.266 -8.16,5.036c0.345,-11.116 0.554,-22.818 -4.691,-32.628c-2.068,-3.845 -5.192,-7.449 -9.402,-8.63c5.088,10.511 10.301,21.731 9.016,33.318c-0.429,3.949 -1.682,7.908 -4.305,10.876c-4.095,4.638 -11.158,6.059 -17.008,4.074c2.862,-9.643 3.782,-20.049 1.201,-29.755c-2.58,-9.716 -8.922,-18.648 -17.938,-23.099c3.782,6.394 7.574,12.84 10.123,19.819c2.55,6.979 3.793,14.595 2.309,21.877c-0.929,4.555 -3.249,9.225 -7.491,11.127c-5.558,2.486 -12.443,-1.055 -15.253,-6.446c-1.933,-3.72 -2.34,-7.993 -2.779,-12.151c-0.428,-4.158 -0.951,-8.452 -3.072,-12.056c-2.12,-3.605 -6.268,-6.352 -10.364,-5.538c3.051,4.66 1.327,11.367 -2.831,15.087c-4.148,3.709 -10.092,4.837 -15.65,4.461c-5.046,-0.345 -10.814,-2.173 -11.754,-7.752c-0.867,-5.14 0.899,-10.594 4.242,-14.543c4.033,-4.785 10.103,-7.543 16.288,-8.505c2.319,-0.355 4.889,-0.585 6.508,-2.277c-3.98,-0.711 -7.961,-1.421 -11.941,-2.142c3.97,-6.989 8.41,-14.438 15.786,-17.698c0.282,-0.125 0.575,-0.24 0.857,-0.355c7.23,-2.779 15.462,-1.024 22.985,1.024c12.411,3.395 24.844,7.605 35.25,15.18c10.395,7.574 18.607,19.004 19.651,31.823c0.283,3.375 0.021,6.906 -1.577,9.873m-112.708,-56.981c-2.215,-1.619 -4.441,-3.239 -6.656,-4.858c-2.079,-1.525 -3.907,-2.204 -2.768,-5.046c1.933,-4.869 4.618,-9.424 7.919,-13.488c0.815,-1.013 1.672,-1.985 2.56,-2.915c0.219,-0.24 0.47,-0.491 0.804,-0.512c0.282,-0.042 0.575,0.126 0.826,0.282c6.007,3.667 11.596,7.982 17.165,12.276c3.479,2.696 6.948,5.381 10.427,8.066c-6.938,3.646 -12.799,9.319 -16.675,16.141c-4.524,-3.312 -9.068,-6.624 -13.602,-9.946m-28.157,-18.795c-2.382,-1.567 -4.753,-3.124 -7.146,-4.691c-0.804,-0.512 -2.309,-1.107 -2.591,-2.037c-0.24,-0.836 0.575,-2.257 0.92,-2.978c2.612,-5.349 5.829,-10.416 9.559,-15.055c0.146,-0.167 0.282,-0.334 0.418,-0.501c0.23,-0.282 0.502,-0.585 0.857,-0.669c0.386,-0.084 0.794,0.105 1.139,0.303c8.274,4.503 16.298,9.445 24.029,14.815c-5.913,5.474 -10.479,12.38 -13.206,19.965c-4.649,-3.061 -9.319,-6.112 -13.979,-9.152m6.447,35.595c-2.633,5.976 -7.387,11.461 -14.021,12.871c-8.546,2.821 -19.474,-3.071 -20.227,-12.432c-0.01,-0.209 -0.031,-0.429 -0.041,-0.648c0.01,-0.011 -0,-0.032 -0,-0.052c-0.251,-7.324 3.552,-15.003 10.113,-18.545c6.968,-3.97 17.552,-3.552 22.65,3.218c1.839,2.685 2.612,5.861 2.591,9.058c-0.01,2.215 -0.397,4.451 -1.065,6.53m-41.53,-10.197c-1.013,-0.094 0.032,-4.44 0.147,-5.161c1.473,-8.661 2.935,-17.322 4.409,-25.983c0.052,0.031 0.115,0.052 0.177,0.083c7.857,3.594 15.703,7.188 23.559,10.782c-0.971,0.533 -2.12,0.617 -3.217,0.752c-6.373,0.774 -12.391,3.782 -17.04,8.181c-2.33,2.204 -4.326,4.764 -5.861,7.574c-0.377,0.721 -1.348,3.856 -2.174,3.772m7.032,-44.183c1.326,-7.271 2.455,-14.553 3.406,-21.877c7.971,4.012 15.869,8.16 23.695,12.443c-5.872,5.495 -10.385,12.422 -13.028,20.028c-0,-0.397 -8.87,-4.169 -9.706,-4.534c-1.108,-0.47 -3.814,-0.982 -4.587,-1.87c-0.846,-1.003 -0.01,-2.957 0.22,-4.19m215.805,110.462c-7.575,-5.903 -16.309,-10.343 -25.555,-12.934c-4.357,-1.295 -8.922,-1.525 -13.342,-2.539c1.787,-5.286 2.999,-10.729 4.482,-16.11c-2.256,-3.416 -6.028,-9.444 -6.237,-8.713c-2.183,-8.013 -7.177,-15.233 -13.927,-20.07c-2.298,-1.661 -5.004,-3.301 -5.787,-6.038c-0.502,-1.724 -0.115,-3.574 0.25,-5.339c0.512,-2.403 0.982,-4.816 1.421,-7.23c-2.748,-1.504 -5.412,-3.207 -7.971,-5.077c-0.659,4.743 -1.453,9.455 -2.435,14.156c-7.355,-2.183 -14.731,-4.586 -21.396,-8.462c-4.952,-2.33 -10.019,-4.89 -15.546,-5.391c-4.785,-0.115 -9.716,-0.491 -14.345,1.013c-9.716,-7.731 -18.941,-16.162 -29.378,-22.964c-8.066,-5.913 -16.737,-10.938 -25.095,-16.423c-11.994,-7.178 -24.5,-13.478 -37.068,-19.61c-0,-2.915 0.564,-5.945 0.689,-8.923c-1.525,0.074 -3.05,-0.104 -4.544,-0.637c-1.39,-0.48 -2.874,-0.679 -4.42,-0.742c-0.219,7.637 -2.142,15.191 -2.685,22.839c-3.05,21.992 -6.185,43.984 -9.141,65.997c1.776,3.364 2.34,7.428 1.494,11.168c-0.774,3.354 -1.568,6.708 -2.226,10.093c-0.052,0.251 -0.25,1.483 -0.407,2.455c1.995,0.355 3.959,0.794 5.892,1.327c1.014,-2.079 1.369,-4.399 0.69,-6.655c6.488,13.393 25.544,17.938 38.342,10.353c12.799,-7.595 18.252,-24.761 13.958,-39.001c8.776,5.182 16.873,11.524 24.009,18.806c-13.592,6.384 -18.743,25.994 -10.019,38.228c-8.818,4.858 -16.549,11.638 -22.661,19.652c1.139,3.562 2.006,7.219 2.612,10.917c3.113,-5.307 6.926,-10.207 11.377,-14.459c8.682,-7.731 19.903,-12.986 31.656,-13.185c6.196,-1.034 12.454,-0.324 18.66,0.23c1.483,4.994 3.594,10.155 7.835,13.446c3.26,2.967 7.742,3.751 11.702,5.412c-1.756,4.21 -4.117,8.086 -6.697,11.826c5.349,1.776 10.416,4.336 15.107,7.481c0.94,-5.328 3.667,-10.155 6.467,-14.731c1.013,-1.682 2.173,-3.26 3.228,-4.921c4.681,0.021 9.737,0.878 14.01,-1.599c2.936,-1.379 4.858,-4.064 7.188,-6.184c2.811,-0.429 5.767,0.114 8.505,-0.941c2.862,-1.045 6.299,-1.118 8.42,-3.573c11.712,1.118 23.56,4.357 33.412,10.876c3.813,-0.721 7.658,-1.118 11.461,-1.118c0.209,0 0.407,0.011 0.616,0.011c-0.836,-0.941 -1.724,-1.839 -2.601,-2.717" style="fill:#030503;fill-rule:nonzero;"/><path d="M683.781,449.289c-1.609,2.978 -4.796,5.266 -8.16,5.036c0.345,-11.116 0.554,-22.818 -4.691,-32.628c-2.068,-3.845 -5.192,-7.449 -9.402,-8.63c5.088,10.511 10.301,21.731 9.016,33.318c-0.429,3.949 -1.682,7.908 -4.305,10.876c-4.095,4.638 -11.158,6.059 -17.008,4.074c2.862,-9.643 3.782,-20.049 1.201,-29.755c-2.58,-9.716 -8.922,-18.648 -17.938,-23.099c3.782,6.394 7.574,12.84 10.123,19.819c2.55,6.979 3.793,14.595 2.309,21.877c-0.929,4.555 -3.249,9.225 -7.491,11.127c-5.558,2.486 -12.443,-1.055 -15.253,-6.446c-1.933,-3.72 -2.34,-7.993 -2.779,-12.151c-0.428,-4.158 -0.951,-8.452 -3.072,-12.056c-2.12,-3.605 -6.268,-6.352 -10.364,-5.538c3.051,4.66 1.327,11.367 -2.831,15.087c-4.148,3.709 -10.092,4.837 -15.65,4.461c-5.046,-0.345 -10.814,-2.173 -11.754,-7.752c-0.867,-5.14 0.899,-10.594 4.242,-14.543c4.033,-4.785 10.103,-7.543 16.288,-8.505c2.319,-0.355 4.889,-0.585 6.508,-2.277c-3.98,-0.711 -7.961,-1.421 -11.941,-2.142c3.97,-6.989 8.41,-14.438 15.786,-17.698c0.282,-0.125 0.575,-0.24 0.857,-0.355c7.23,-2.779 15.462,-1.024 22.985,1.024c12.411,3.395 24.844,7.605 35.25,15.18c10.395,7.574 18.607,19.004 19.651,31.823c0.283,3.375 0.021,6.906 -1.577,9.873" style="fill:#54a4bb;fill-rule:nonzero;"/><path d="M550.428,402.578c-0.125,-2.883 -0.909,-5.694 -2.58,-8.118c-5.099,-6.78 -15.672,-7.188 -22.651,-3.228c-6.279,3.395 -10.04,10.583 -10.123,17.615c-0.251,-7.324 3.552,-15.003 10.113,-18.545c6.968,-3.97 17.552,-3.552 22.65,3.218c1.839,2.685 2.612,5.861 2.591,9.058" style="fill:#fff;fill-rule:nonzero;"/><path d="M610.282,382.456c0,0 16.553,-8.36 51.287,12.84l-19.015,0l-32.272,-12.84Z" style="fill:#030503;fill-rule:nonzero;"/><path d="M522.679,165.69l0,0.01c0,0.669 0,1.338 -0.01,2.017c-0.303,20.78 -5.172,41.424 -14.073,60.209c-11.649,24.813 -31.76,46.419 -57.524,56.636c-9.978,4.326 -20.655,6.927 -31.437,8.212c-9.403,0.136 -18.9,1.034 -28.24,-0.501c-14.898,-1.724 -29.336,-7.011 -42.124,-14.794c-11.806,-6.885 -22.358,-16.11 -30.173,-27.373c-12.338,-16.538 -19.338,-36.953 -19.777,-57.576l-0,-0.042c-0.011,-0.355 -0.011,-0.721 -0.011,-1.087c-0.02,-1.462 0,-2.925 0.053,-4.388c0.773,-0.512 1.567,-0.971 2.392,-1.389c15.024,-10.981 23.319,-29.358 25.398,-47.505c0.355,-1.881 0.533,-3.772 0.544,-5.663l-0,-0.062c-0,-0.157 -0,-0.314 -0.011,-0.471c-0.052,-6.488 -2.027,-12.955 -5.057,-18.669c-0.094,-0.188 -0.188,-0.377 -0.292,-0.554c3.124,-4.482 7.585,-7.888 10.97,-12.192c11.315,-10.5 24.071,-19.872 38.53,-25.513c9.32,-4.002 19.203,-6.676 29.306,-7.752c18.074,-2.644 36.932,-0.972 54.306,4.879c3.594,1.368 7.188,2.737 10.657,4.419c1.18,0.595 2.382,1.17 3.594,1.734c16.57,8.379 31.092,21.25 40.317,37.465c8.17,14.313 11.879,30.82 12.631,47.181c0.011,0.314 0.011,0.627 0.011,0.941c0.01,0.606 0.02,1.222 0.02,1.828" style="fill:#a7abaa;fill-rule:nonzero;"/><path d="M419.867,97.318c-9.94,-7.519 -23.105,-9.975 -35.229,-7.484c-1.979,0.371 -3.976,0.707 -5.99,0.724l0.344,-0.283c3.897,-3.287 8.094,-6.185 12.697,-8.403c3.35,-1.041 6.742,-2.296 10.321,-1.935c8.933,0.654 17.328,8.28 17.857,17.381" style="fill:#030503;fill-rule:nonzero;"/><path d="M499.188,124.807c-3.491,-2.704 -6.645,-5.929 -10.621,-7.953c-8.182,-4.135 -18.149,-4.683 -26.729,-1.501c0.062,-1.53 1.264,-2.448 2.315,-3.358c5.381,-4.109 12.026,-7.785 19.024,-6.539c8.934,1.97 14.641,10.797 16.011,19.351" style="fill:#030503;fill-rule:nonzero;"/><path d="M419.116,149.348c-1.338,9.058 -4.817,17.782 -10.27,25.168c-5.308,8.348 -13.676,15.181 -23.591,16.946c-6.603,1.494 -13.54,-0.491 -19.213,-3.938c-4.827,-2.894 -8.159,-7.648 -10.709,-12.538c-5.589,-12.202 -4.534,-26.63 0.47,-38.833c4.378,-11.367 13.102,-20.937 23.957,-26.432c6.446,-2.978 14.125,-4.556 20.978,-1.975c5.59,1.703 9.821,6.028 13.342,10.51c5.757,9.215 6.707,20.561 5.036,31.092m3.834,-26.902c-2.946,-7.92 -8.285,-15.494 -16.194,-19.036c-9.946,-5.088 -22.274,-3.897 -31.813,1.546c-11.293,6.206 -19.578,16.769 -24.907,28.324c-0.428,1.254 -0.888,2.497 -1.316,3.75c-3.406,9.069 -3.907,18.9 -3.082,28.47c1.463,8.337 5.004,16.476 10.698,22.797c5.694,5.944 13.624,9.862 21.878,10.291c10.761,0.616 21.522,-4.138 28.793,-12.005c5.495,-5.046 9.466,-11.419 12.851,-17.99c6.258,-14.324 9.078,-31.26 3.092,-46.147" style="fill:#030503;fill-rule:nonzero;"/><path d="M407.206,162.126c-1.536,5.014 -4.106,9.925 -8.317,13.059c-3.562,2.654 -8.525,3.834 -12.798,2.319c-4.294,-1.525 -6.488,-6.362 -7.01,-10.614c-0.45,-3.709 0.209,-7.47 1.264,-11.043c1.588,-5.433 4.283,-10.824 8.943,-14.032c2.34,-1.608 5.098,-2.601 7.93,-2.841c1.17,-0.105 2.371,-0.073 3.51,0.209c0.303,0.083 0.616,0.177 0.909,0.292c1.786,0.711 3.197,2.152 4.252,3.761c1.776,2.727 2.633,6.008 2.748,9.257c0.115,3.26 -0.491,6.509 -1.431,9.633m6.874,-43.87c-3.521,-4.482 -7.752,-8.807 -13.342,-10.51c-6.853,-2.581 -14.532,-1.003 -20.978,1.975c-10.855,5.495 -19.579,15.065 -23.957,26.432c-5.004,12.203 -6.059,26.631 -0.47,38.833c2.55,4.89 5.882,9.644 10.709,12.538c5.673,3.447 12.61,5.432 19.213,3.938c9.915,-1.765 18.283,-8.598 23.591,-16.946c5.453,-7.386 8.932,-16.11 10.27,-25.168c1.671,-10.531 0.721,-21.877 -5.036,-31.092" style="fill:#fff;fill-rule:nonzero;"/><path d="M405.377,152.179c-0.397,1.923 -1.201,3.835 -2.664,5.151c-0.198,0.178 -0.407,0.334 -0.616,0.481c-2.696,1.87 -5.893,0.877 -6.614,-2.602c-0.428,-2.11 0.063,-4.43 1.473,-6.049c1.421,-1.619 3.762,-2.434 5.83,-1.849c1.066,0.292 2.079,0.992 2.508,2.016c0.376,0.888 0.282,1.912 0.083,2.852m3.26,0.314c-0.115,-3.249 -0.972,-6.53 -2.748,-9.257c-1.055,-1.609 -2.466,-3.05 -4.252,-3.761c-0.293,-0.115 -0.606,-0.209 -0.909,-0.292c-1.139,-0.282 -2.34,-0.314 -3.51,-0.209c-2.832,0.24 -5.59,1.233 -7.93,2.841c-4.66,3.208 -7.355,8.599 -8.943,14.032c-1.055,3.573 -1.714,7.334 -1.264,11.043c0.522,4.252 2.716,9.089 7.01,10.614c4.273,1.515 9.236,0.335 12.798,-2.319c4.211,-3.134 6.781,-8.045 8.317,-13.059c0.94,-3.124 1.546,-6.373 1.431,-9.633" style="fill:#030503;fill-rule:nonzero;"/><path d="M405.377,152.179c-0.397,1.923 -1.201,3.835 -2.664,5.151c-0.198,0.178 -0.407,0.334 -0.616,0.481c-2.696,1.87 -5.893,0.877 -6.614,-2.602c-0.428,-2.11 0.063,-4.43 1.473,-6.049c1.421,-1.619 3.762,-2.434 5.83,-1.849c1.066,0.292 2.079,0.992 2.508,2.016c0.376,0.888 0.282,1.912 0.083,2.852" style="fill:#fff;fill-rule:nonzero;"/><path d="M488.352,190.919c-5.475,9.81 -14.366,18.315 -25.471,21.156c-6.154,0.962 -12.976,1.254 -18.503,-2.131c-7.679,-4.148 -12.161,-12.495 -13.686,-20.843c-2.09,-13.885 1.452,-28.49 9.601,-39.92c5.548,-8.076 13.456,-14.877 23.016,-17.562c7.125,-1.912 15.41,-1.118 21.261,3.677c6.08,5.14 9.434,12.798 10.771,20.53c1.358,12.025 -1.233,24.447 -6.989,35.093m13.414,-33.307c-1.003,-10.447 -5.161,-21.208 -13.696,-27.79c-6.206,-4.305 -14.021,-6.436 -21.554,-5.558c-10.99,2.068 -20.895,8.587 -27.968,17.144c-7.741,9.048 -12.62,20.383 -14.355,32.137c-0.616,9.403 -0.501,19.223 3.751,27.863c4.346,10.009 14.459,17.009 25.241,18.054c11.733,0.919 23.068,-4.785 31.124,-13.007c8.859,-8.076 13.874,-19.517 16.465,-31.03c1.379,-5.84 1.024,-11.858 0.992,-17.813" style="fill:#030503;fill-rule:nonzero;"/><path d="M462.964,170.055c-0.543,7.105 -2.821,14.397 -7.804,19.663c-3.218,3.04 -8.055,5.505 -12.443,3.479c-4.796,-1.578 -6.394,-7.073 -6.812,-11.597c-0.188,-6.833 2.142,-13.676 6.206,-19.14c3.489,-4.472 9.591,-8.139 15.264,-5.569c4.513,2.602 5.934,8.285 5.589,13.164m32.377,-14.229c-1.337,-7.732 -4.691,-15.39 -10.771,-20.53c-5.851,-4.795 -14.136,-5.589 -21.261,-3.677c-9.56,2.685 -17.468,9.486 -23.016,17.562c-8.149,11.43 -11.691,26.035 -9.601,39.92c1.525,8.348 6.007,16.695 13.686,20.843c5.527,3.385 12.349,3.093 18.503,2.131c11.105,-2.841 19.996,-11.346 25.471,-21.156c5.756,-10.646 8.347,-23.068 6.989,-35.093" style="fill:#fff;fill-rule:nonzero;"/><path d="M460.206,166.827c-0.125,1.786 -0.867,3.531 -2.079,4.868c-0.867,0.962 -1.996,1.724 -3.27,2.017c-1.546,0.355 -2.758,-0.031 -3.584,-0.846c-1.076,-1.056 -1.504,-2.853 -1.212,-4.66c0.272,-1.661 1.139,-3.197 2.341,-4.367c0.898,-0.878 2.058,-1.599 3.312,-1.588c1.347,0.01 2.57,0.846 3.499,1.818c0.324,0.345 0.638,0.721 0.815,1.159c0.199,0.502 0.22,1.056 0.178,1.599m-2.831,-9.936c-5.673,-2.57 -11.775,1.097 -15.264,5.569c-4.064,5.464 -6.394,12.307 -6.206,19.14c0.418,4.524 2.016,10.019 6.812,11.597c4.388,2.026 9.225,-0.439 12.443,-3.479c4.983,-5.266 7.261,-12.558 7.804,-19.663c0.345,-4.879 -1.076,-10.562 -5.589,-13.164" style="fill:#030503;fill-rule:nonzero;"/><path d="M460.206,166.827c-0.125,1.786 -0.867,3.531 -2.079,4.868c-0.867,0.962 -1.996,1.724 -3.27,2.017c-1.546,0.355 -2.758,-0.031 -3.584,-0.846c-1.076,-1.056 -1.504,-2.853 -1.212,-4.66c0.272,-1.661 1.139,-3.197 2.341,-4.367c0.898,-0.878 2.058,-1.599 3.312,-1.588c1.347,0.01 2.57,0.846 3.499,1.818c0.324,0.345 0.638,0.721 0.815,1.159c0.199,0.502 0.22,1.056 0.178,1.599" style="fill:#fff;fill-rule:nonzero;"/><path d="M384.939,273.745c-13.448,-3.463 -25.863,-11.602 -33.17,-23.574c-2.077,-3.8 -5.116,-7.475 -5.293,-11.964c7.856,-3.781 17.522,-2.103 24.829,2.289c6.345,3.065 10.869,8.685 15.083,14.146c4.869,-0.583 9.852,-1.794 14.703,-0.381c8.058,1.989 15.648,8.121 17.646,16.382c-10.603,4.339 -22.62,6.654 -33.798,3.102m16.453,-46.239c-3.252,-0.963 -6.468,-2.032 -9.64,-3.225c-20.447,-7.678 -39.108,-20.119 -53.997,-36.112c2.051,0.018 3.216,-2.827 2.121,-4.551c-1.095,-1.731 -3.561,-2.165 -5.488,-1.457c-1.917,0.698 -3.383,2.271 -4.63,3.887c-3.701,4.816 -6.175,11.204 -4.294,16.983c1.431,-3.941 3.711,-7.581 6.636,-10.594c-0.485,14.023 0.221,28.24 4.179,41.706c9.976,33.938 42.838,54.729 77.845,46.026c18.927,-4.709 35.458,-17.451 46.089,-33.798c2.694,-4.126 5.195,-8.658 9.4,-11.23c2.704,-1.652 6.451,-3.058 6.566,-6.22c-24.458,6.203 -50.585,5.707 -74.787,-1.415" style="fill:#030503;fill-rule:nonzero;"/><path d="M418.736,270.644c-10.603,4.339 -22.62,6.653 -33.797,3.102c-13.448,-3.465 -25.862,-11.602 -33.17,-23.575c-2.076,-3.799 -5.117,-7.476 -5.293,-11.964c7.855,-3.782 17.522,-2.103 24.83,2.288c6.343,3.066 10.867,8.686 15.082,14.147c4.868,-0.584 9.852,-1.794 14.704,-0.38c8.058,1.988 15.648,8.12 17.644,16.382" style="fill:#ec321b;fill-rule:nonzero;"/><path d="M581.371,89.242c-0,-0 19.508,10.37 23.274,30.104c-0,-0 4.605,-20.578 29.326,-32.499l4.181,2.085l-34.676,37.877l-22.105,-37.567Z" style="fill:#030503;fill-rule:nonzero;"/><path d="M510.515,313.127l-14.617,108.514l4.335,3.458l14.055,-114.08l-3.773,2.108Z" style="fill:#030503;fill-rule:nonzero;"/><path d="M160.108,472.314l16.786,86.608l8.372,-1.116l-18.704,-86.386l-6.454,0.894Zm-68.164,10.697l43.429,76.085l22.375,-86.456l-7.411,1.027l-13.71,78.33l-35.23,-70.259l-9.453,1.273Zm-4.125,0.556l-3.756,91.33l9.372,-1.304l-1.516,-90.578l-4.1,0.552Zm-25.662,115.477l5.504,-133.846l45.729,-6.159l13.561,27.044l5.43,-31.025l50.503,-6.994l27.596,127.46l-50.351,6.714l-3.923,-20.244l-5.304,20.495l-23.908,4.08l-12.819,-22.46l0.462,27.632l-52.48,7.303Z" style="fill:#030503;fill-rule:nonzero;"/><path d="M311.518,461.238l4.185,81.287l8.68,-1.099l-5.814,-78.699l50.741,78.033l14.193,-0.751l-0.955,-81.837l-9.667,0.781l1.16,79.494l-49.282,-78.14l-13.241,0.931Zm-15.524,104.845l-5.797,-112.857l-0,-11.437l45.568,-3.202l16.298,25.842l-0.362,-24.73l51.48,-4.154l1.45,124.27l-46.263,2.448l-12.966,-19.941l1.28,17.342l-50.688,6.419Z" style="fill:#030503;fill-rule:nonzero;"/><path d="M418.206,540.731l8.619,0.235l6.606,-82.912l-11.33,0.171l-3.895,82.506Zm27.874,21.662l-49.75,-1.355l5.825,-123.408l53.931,-0.818l-10.006,125.581Z" style="fill:#030503;fill-rule:nonzero;"/><path d="M232.249,468.399l-15.789,84.199l4.904,-0.561l4.373,-17.068l45.421,-5.25l5.787,17.114l8.071,-0.666l-29.59,-81.315l-5.282,0.809l18.247,63.407l-44.82,5.179l12.96,-66.503l-4.282,0.655Zm-41.546,108.181l23.739,-126.595l26.335,-4.029l3.542,-0.542l24.884,-3.808l44.807,123.132l-51.624,4.264l-5.611,-16.586l-14.363,1.66l-4.376,17.082l-47.333,5.422Z" style="fill:#030503;fill-rule:nonzero;"/><path d="M517.341,546.609l9.327,0.51l-13.881,-86.494l-5.955,-0.385l8.891,67.615l-46.603,-3.87l24.932,-64.572l-3.146,-0.204l-33.954,82.586l5.83,0.358l6.245,-16.877l45.872,2.774l2.442,18.559Zm34.066,22.795l-52.522,-2.881l-2.455,-18.658l-13.187,-0.797l-6.25,16.894l-50.472,-3.104l50.765,-123.468l24.655,1.594l2.114,0.137l26.72,1.729l20.632,128.554Z" style="fill:#030503;fill-rule:nonzero;"/><path d="M726.642,477.917c-4.055,5.346 -8.014,10.762 -12.14,16.047c-1.758,2.2 -3.155,4.797 -5.505,6.44c-6.256,-5.858 -13.766,-11.265 -22.496,-12.29c-5.337,-0.972 -10.56,3.552 -10.683,8.88c0.539,2.12 1.697,4.162 3.455,5.531c6.211,4.736 13.51,7.944 19.298,13.254c3.782,3.614 7.828,7.237 9.852,12.193c3.322,6.822 2.094,14.8 -0.107,21.782c-1.581,4.002 -3.746,7.784 -6.193,11.318c-10.338,12.202 -27.339,18.069 -43.031,15.552c-8.721,-0.69 -16.957,-4.083 -24.67,-8.024c-4.189,-2.262 -8.217,-4.895 -11.557,-8.306c3.1,-6.105 5.186,-12.67 8.552,-18.644c1.918,-3.384 3.518,-6.98 6.036,-9.984c6.052,6.044 12.785,11.867 21.082,14.553c3.631,1.175 7.855,2.315 11.469,0.494c3.729,-1.625 6.371,-5.769 5.725,-9.852c-1.564,-4.762 -6.229,-7.342 -10.09,-10.046c-8.659,-5.523 -17.654,-11.248 -23.53,-19.881c-3.031,-4.206 -2.651,-9.578 -2.359,-14.473c0.645,-5.911 3.64,-11.186 6.698,-16.17c1.007,-1.678 2.173,-3.26 3.225,-4.921c4.683,0.026 9.737,0.883 14.013,-1.591c2.934,-1.387 4.851,-4.065 7.184,-6.194c2.809,-0.424 5.77,0.123 8.5,-0.936c2.863,-1.043 6.308,-1.114 8.429,-3.57c14.076,1.343 28.381,5.743 39.144,15.26c0.619,1.175 0.653,2.562 -0.301,3.578" style="fill:#fff;fill-rule:nonzero;"/><path d="M575.318,500.802c-2.845,6.504 -3.755,13.767 -2.615,20.765c1.493,7.325 7.501,13.642 14.967,14.915c8.236,1.246 16.639,-1.511 23.548,-5.912c1.609,1.874 2.174,4.322 3.04,6.592c1.679,5.469 4.029,10.956 3.243,16.815c-4.303,7.121 -12.406,10.656 -20.296,12.079c-12.76,2.739 -26.172,-1.22 -36.651,-8.659c-7.918,-6.133 -14.235,-14.562 -17.196,-24.176c-7.077,-23.556 0.663,-50.506 18.353,-67.409c8.685,-7.732 19.907,-12.98 31.658,-13.184c6.195,-1.033 12.459,-0.317 18.663,0.23c1.483,4.992 3.587,10.153 7.837,13.448c3.26,2.97 7.74,3.747 11.699,5.408c-3.251,7.758 -8.483,14.403 -13.484,21.083c-2.731,-1.599 -4.683,-4.224 -7.493,-5.708c-5.655,-2.89 -12.467,-4.958 -18.661,-2.545c-7.741,2.501 -13.069,9.26 -16.612,16.258" style="fill:#fff;fill-rule:nonzero;"/><path d="M73.11,586.97l4.63,-112.587l29.654,-3.994l24.396,48.65l9.569,-54.676l33.364,-4.621l23.151,106.923l-29.362,3.915l-10.842,-55.94l-15.189,58.688l-10.038,1.713l-29.396,-51.504l0.989,59.13l-30.926,4.303Z" style="fill:#fff;fill-rule:nonzero;"/><path d="M300.644,453.226l5.205,101.078l29.683,-3.759l-3.547,-48.02l31.854,48.987l30.228,-1.6l-1.203,-103.053l-30.573,2.467l0.761,52.112l-32.789,-51.99l-29.619,2.08l-0,1.698Z" style="fill:#fff;fill-rule:nonzero;"/><path d="M444.758,447.433l-8.305,104.246l-29.186,-0.795l4.86,-102.956l32.631,-0.495Z" style="fill:#fff;fill-rule:nonzero;"/><path d="M236.557,522.229l7.67,-39.355l10.713,37.231l-18.383,2.124Zm25.757,-69l-38.969,5.963l-19.763,105.397l26.118,-2.992l4.374,-17.075l29.892,-3.455l5.7,16.85l29.847,-2.464l-37.199,-102.224Z" style="fill:#fff;fill-rule:nonzero;"/><path d="M483.893,514.728l14.597,-37.8l5.186,39.443l-19.783,-1.643Zm37.888,-63.99l-37.686,-2.439l-42.358,103.028l28.151,1.731l6.246,-16.885l29.53,1.785l2.448,18.608l30.926,1.697l-17.257,-107.525Z" style="fill:#fff;fill-rule:nonzero;"/><path d="M440.744,322.682c-0,-0 -92.588,-5.377 -97.618,0.942c1.317,2.705 2.635,5.411 3.953,8.117c1.558,-0.518 3.278,-1.001 5.15,-1.398c4.032,-0.856 7.675,-1.082 10.701,-1.038l77.814,-6.623Z" style="fill-rule:nonzero;"/><path d="M349.121,647.62l0,2.825c0,1.103 0.894,1.997 1.997,1.997l6.539,0l-8.536,-4.822Z" style="fill:#fcad08;fill-rule:nonzero;"/><path d="M442.85,647.615l-0,2.832c-0,1.023 -0.784,1.88 -1.787,1.985c-0.073,0.01 -0.136,0.01 -0.209,0.01l-6.54,0l0.021,-0.01l8.515,-4.817Z" style="fill:#fcad08;fill-rule:nonzero;"/></g></g></svg>